<svg width="21" height="35" viewBox="0 0 21 35" fill="none" xmlns="http://www.w3.org/2000/svg">
<g clip-path="url(#clip0_201_1517)">
<path d="M15.0033 28.7403C14.7257 28.7433 14.4504 28.6931 14.194 28.5927C13.9375 28.4923 13.7053 28.3438 13.5115 28.1561C12.682 27.3533 12.597 25.8472 14.2823 24.2968C15.7243 22.9679 18.7988 22.5581 18.9307 22.5415C19.0215 22.5301 19.1138 22.5389 19.2004 22.5673C19.2869 22.5956 19.3652 22.6428 19.4289 22.7049C19.4925 22.7667 19.5399 22.8417 19.5674 22.9239C19.5949 23.0061 19.6017 23.0932 19.5872 23.1783C19.5667 23.3029 19.0597 26.196 17.6147 27.5249C17.0284 28.1158 16.2677 28.5267 15.4312 28.7043C15.29 28.7285 15.1468 28.7406 15.0033 28.7403ZM18.2537 23.7874C17.2484 24.0006 15.821 24.4241 15.1 25.0886C14.1445 25.9718 13.8426 26.8937 14.3497 27.3837C14.4637 27.4891 14.6042 27.5655 14.758 27.6056C14.9117 27.6458 15.0738 27.6485 15.229 27.6135C15.566 27.5581 16.1082 27.3616 16.7941 26.7331C17.518 26.0687 18.0016 24.7315 18.2537 23.7874Z" fill="#474646"/>
<path d="M11.0436 35C10.8882 35 10.7391 34.9417 10.6291 34.8378C10.5192 34.734 10.4575 34.5931 10.4575 34.4463V11.7442C10.4575 11.5973 10.5192 11.4565 10.6291 11.3527C10.7391 11.2488 10.8882 11.1905 11.0436 11.1905C11.1991 11.1905 11.3482 11.2488 11.4581 11.3527C11.5681 11.4565 11.6298 11.5973 11.6298 11.7442V34.4463C11.6298 34.5931 11.5681 34.734 11.4581 34.8378C11.3482 34.9417 11.1991 35 11.0436 35Z" fill="#474646"/>
<path d="M16.9992 19.6041C16.3254 19.6025 15.6673 19.4122 15.1079 19.0574C14.5485 18.7026 14.113 18.1992 13.8563 17.6107C13.5997 17.0222 13.5334 16.3751 13.6659 15.751C13.7985 15.127 14.1238 14.5541 14.6008 14.1046C15.0779 13.6551 15.6853 13.3493 16.3462 13.2257C17.0072 13.1022 17.6921 13.1664 18.3145 13.4103C18.9368 13.6543 19.4686 14.067 19.8428 14.5963C20.217 15.1256 20.4166 15.7478 20.4166 16.3843C20.4151 17.2392 20.0543 18.0586 19.4135 18.6623C18.7726 19.2661 17.9043 19.6048 16.9992 19.6041ZM16.9992 14.2746C16.5567 14.2741 16.1239 14.3976 15.7557 14.6295C15.3875 14.8614 15.1004 15.1913 14.9308 15.5774C14.7612 15.9635 14.7166 16.3884 14.8028 16.7985C14.889 17.2085 15.1021 17.5851 15.415 17.8807C15.7279 18.1763 16.1267 18.3776 16.5607 18.459C16.9948 18.5404 17.4447 18.4983 17.8534 18.3381C18.2622 18.1779 18.6114 17.9067 18.8569 17.5589C19.1024 17.2111 19.2331 16.8023 19.2326 16.3843C19.2318 15.825 18.9962 15.2888 18.5776 14.8933C18.1589 14.4979 17.5913 14.2754 16.9992 14.2746Z" fill="#474646"/>
<path d="M11.0436 30.7143C10.9246 30.7141 10.8085 30.6798 10.7107 30.6158C10.6129 30.5518 10.538 30.4611 10.496 30.356C10.454 30.2508 10.4469 30.136 10.4756 30.027C10.5043 29.9179 10.5675 29.8196 10.6567 29.7453L13.5437 27.3533C13.6613 27.2638 13.811 27.2206 13.9615 27.2328C14.112 27.245 14.2516 27.3116 14.3514 27.4187C14.4512 27.5258 14.5034 27.6652 14.497 27.8077C14.4907 27.9503 14.4264 28.085 14.3174 28.1838L11.4305 30.5786C11.3232 30.6666 11.1857 30.7149 11.0436 30.7143Z" fill="#474646"/>
<path d="M7.03416 27.3007C6.86907 27.3003 6.70432 27.2864 6.54177 27.2591C5.56584 27.0475 4.67899 26.5655 3.99482 25.8749C2.31248 24.3162 1.71165 20.897 1.68527 20.7641C1.66854 20.6778 1.67378 20.5889 1.70057 20.5048C1.72735 20.4208 1.77492 20.3439 1.83933 20.2806C1.90375 20.2174 1.98317 20.1695 2.07104 20.1409C2.15891 20.1123 2.25272 20.1039 2.34472 20.1163C2.49713 20.1357 6.13145 20.6174 7.82844 22.1816C8.57429 22.81 9.1049 23.6341 9.35251 24.5487C9.44364 24.9169 9.43587 25.3007 9.32991 25.6653C9.22395 26.0299 9.02316 26.3636 8.74581 26.6362C8.52389 26.8518 8.25745 27.022 7.96301 27.1363C7.66858 27.2506 7.35243 27.3065 7.03416 27.3007ZM4.81547 25.0858C5.65078 25.8555 6.32195 26.0963 6.74107 26.1656C6.94579 26.2185 7.16175 26.2191 7.36676 26.1672C7.57178 26.1152 7.75848 26.0127 7.90767 25.8701C8.05686 25.7275 8.16318 25.5499 8.2157 25.3556C8.26822 25.1614 8.26505 24.9574 8.20652 24.7647C8.1186 24.3632 7.84602 23.7431 7.01072 22.979C6.02886 22.0736 4.11499 21.5947 3.0159 21.3621C3.27675 22.3948 3.84534 24.1888 4.82719 25.0941L4.81547 25.0858Z" fill="#474646"/>
<path d="M11.0436 29.0698C10.9011 29.0696 10.7636 29.0204 10.6567 28.9313L7.93979 26.6805C7.83086 26.5817 7.76652 26.4469 7.76019 26.3044C7.75386 26.1618 7.80602 26.0225 7.9058 25.9154C8.00558 25.8083 8.14528 25.7417 8.29577 25.7295C8.44626 25.7173 8.59592 25.7605 8.71355 25.8499L11.4305 28.0842C11.5267 28.1569 11.5961 28.2564 11.629 28.3686C11.6619 28.4807 11.6566 28.5998 11.6137 28.7089C11.5709 28.818 11.4928 28.9116 11.3904 28.9764C11.2881 29.0412 11.1667 29.0738 11.0436 29.0698Z" fill="#474646"/>
<path d="M6.2079 18.5936C6.02032 18.5936 5.83306 18.5788 5.6481 18.5493C4.6897 18.3915 3.67267 17.8405 2.7172 16.9546C0.73884 15.1357 0.0354232 11.1434 0.000252422 10.9745C-0.0141939 10.8894 -0.00740865 10.8023 0.0200679 10.7201C0.0475444 10.6379 0.0949535 10.5629 0.158521 10.5011C0.222288 10.439 0.300574 10.3919 0.387101 10.3635C0.473628 10.3351 0.565988 10.3263 0.656775 10.3378C0.83556 10.3627 5.07951 10.9247 7.052 12.7409C8.01334 13.6268 8.62297 14.5736 8.81054 15.4762C8.91526 15.8932 8.90762 16.3284 8.78832 16.7419C8.66902 17.1554 8.44187 17.5341 8.12764 17.8433C7.87809 18.0846 7.57925 18.2755 7.24926 18.4045C6.91927 18.5335 6.565 18.5978 6.2079 18.5936ZM3.51734 16.16C4.30868 16.8909 5.11175 17.3394 5.83568 17.4557C6.09192 17.5175 6.36087 17.5145 6.61549 17.447C6.87011 17.3794 7.10142 17.2498 7.28619 17.0711C7.47095 16.8923 7.60264 16.6708 7.66803 16.4288C7.73342 16.1867 7.7302 15.9326 7.6587 15.6921C7.51509 15.0111 7.02269 14.2636 6.22842 13.5327C5.00916 12.4086 2.59117 11.8189 1.32209 11.5753C1.61518 12.7685 2.29515 15.036 3.51734 16.16Z" fill="#474646"/>
<path d="M10.9117 20.6589C10.7703 20.6581 10.6339 20.6089 10.5278 20.5205L7.32725 17.8738C7.21831 17.7749 7.15397 17.6402 7.14764 17.4976C7.14131 17.3551 7.19347 17.2157 7.29325 17.1086C7.39303 17.0015 7.53273 16.9349 7.68322 16.9227C7.83371 16.9105 7.98337 16.9537 8.101 17.0432L11.2957 19.6927C11.3849 19.767 11.4481 19.8653 11.4768 19.9744C11.5055 20.0834 11.4984 20.1982 11.4564 20.3034C11.4144 20.4085 11.3396 20.4991 11.2417 20.5632C11.1439 20.6272 11.0278 20.6615 10.9088 20.6617L10.9117 20.6589Z" fill="#474646"/>
<path d="M11.0436 22.2813C10.9259 22.2799 10.8114 22.2451 10.715 22.1813C10.6185 22.1176 10.5446 22.0279 10.5029 21.924C10.4611 21.82 10.4535 21.7066 10.4809 21.5985C10.5084 21.4904 10.5696 21.3926 10.6567 21.3178L14.7278 17.9402C14.8454 17.8507 14.9951 17.8076 15.1455 17.8197C15.296 17.8319 15.4357 17.8985 15.5355 18.0056C15.6353 18.1127 15.6875 18.2521 15.6811 18.3946C15.6748 18.5372 15.6105 18.6719 15.5015 18.7708L11.4305 22.1484C11.3228 22.2354 11.1854 22.2826 11.0436 22.2813Z" fill="#474646"/>
<path d="M11.0436 12.2895C9.75674 12.2895 8.49875 11.9291 7.42875 11.2537C6.35874 10.5784 5.52478 9.61845 5.03231 8.49538C4.53984 7.37232 4.41098 6.13652 4.66204 4.94428C4.9131 3.75204 5.5328 2.6569 6.44276 1.79734C7.35273 0.937778 8.51209 0.352411 9.77425 0.115259C11.0364 -0.121892 12.3447 -0.000177452 13.5336 0.465012C14.7225 0.930202 15.7387 1.71797 16.4537 2.72871C17.1686 3.73944 17.5502 4.92774 17.5502 6.14334C17.5487 7.77296 16.8627 9.33541 15.6428 10.4877C14.4229 11.64 12.7688 12.2881 11.0436 12.2895ZM11.0436 1.10735C9.98849 1.10735 8.95705 1.40294 8.07977 1.95673C7.2025 2.51052 6.5188 3.29763 6.11515 4.2185C5.7115 5.13938 5.60603 6.15264 5.81209 7.13014C6.01815 8.10764 6.52648 9.00546 7.27278 9.71003C8.01908 10.4146 8.96983 10.8943 10.0048 11.0884C11.0397 11.2825 12.1123 11.1823 13.087 10.8005C14.0616 10.4187 14.8945 9.77247 15.4803 8.94348C16.0661 8.1145 16.3784 7.14003 16.3779 6.14334C16.3763 4.80768 15.8137 3.52719 14.8136 2.583C13.8135 1.63881 12.4576 1.10808 11.0436 1.10735Z" fill="#474646"/>
<path d="M11.0436 6.48394C11 6.48369 10.9567 6.47811 10.9147 6.46733C9.37886 6.09081 9.04181 5.31561 9.04181 4.73976C9.06391 4.25821 9.28684 3.80449 9.66191 3.47769C10.037 3.15089 10.5337 2.97756 11.0436 2.99557C11.5537 2.97683 12.0509 3.1499 12.4261 3.47685C12.8014 3.8038 13.0241 4.25796 13.0454 4.73976C13.0454 4.86825 12.9914 4.99149 12.8952 5.08235C12.799 5.17321 12.6685 5.22425 12.5325 5.22425C12.3965 5.22425 12.266 5.17321 12.1698 5.08235C12.0736 4.99149 12.0196 4.86825 12.0196 4.73976C11.9973 4.51538 11.8824 4.30831 11.6998 4.16326C11.5171 4.01822 11.2815 3.94685 11.0436 3.96456C10.8058 3.94685 10.5701 4.01822 10.3875 4.16326C10.2049 4.30831 10.09 4.51538 10.0676 4.73976C10.0676 4.86711 10.0676 5.25471 11.1755 5.53156C11.2955 5.56204 11.3998 5.63265 11.4688 5.73027C11.5379 5.82789 11.5671 5.94588 11.5509 6.06229C11.5348 6.17871 11.4745 6.28563 11.3812 6.36319C11.2879 6.44074 11.1679 6.48365 11.0436 6.48394Z" fill="#474646"/>
<path d="M11.0436 9.00332C10.5337 9.02133 10.037 8.848 9.66191 8.5212C9.28684 8.1944 9.06391 7.74068 9.04181 7.25914C9.04181 7.13064 9.09585 7.00741 9.19204 6.91655C9.28822 6.82569 9.41868 6.77464 9.55472 6.77464C9.69075 6.77464 9.82121 6.82569 9.9174 6.91655C10.0136 7.00741 10.0676 7.13064 10.0676 7.25914C10.0921 7.48223 10.2078 7.68749 10.3901 7.83123C10.5724 7.97498 10.8069 8.04586 11.0436 8.02879C11.2801 8.04582 11.5142 7.97486 11.696 7.83105C11.8778 7.68725 11.9929 7.482 12.0167 7.25914C12.0167 6.77741 11.3103 6.55316 10.8883 6.46179C10.8207 6.44942 10.7565 6.42433 10.6995 6.38804C10.6424 6.35174 10.5937 6.30498 10.5562 6.25052C10.5186 6.19607 10.4931 6.13504 10.481 6.07106C10.469 6.00709 10.4707 5.94148 10.486 5.87814C10.5013 5.81479 10.53 5.75501 10.5703 5.70235C10.6106 5.64969 10.6617 5.60522 10.7206 5.5716C10.7794 5.53797 10.8448 5.51587 10.9129 5.50661C10.981 5.49736 11.0504 5.50114 11.1169 5.51772C12.342 5.78073 13.0425 6.41473 13.0425 7.25914C13.0204 7.74019 12.7979 8.19348 12.4234 8.5202C12.049 8.84692 11.553 9.02058 11.0436 9.00332Z" fill="#474646"/>
<path d="M11.0436 9.86434C10.9076 9.86434 10.7771 9.8133 10.681 9.72244C10.5848 9.63157 10.5307 9.50834 10.5307 9.37985V8.51883C10.5307 8.39033 10.5848 8.2671 10.681 8.17624C10.7771 8.08537 10.9076 8.03433 11.0436 8.03433C11.1797 8.03433 11.3101 8.08537 11.4063 8.17624C11.5025 8.2671 11.5565 8.39033 11.5565 8.51883V9.37985C11.5565 9.50834 11.5025 9.63157 11.4063 9.72244C11.3101 9.8133 11.1797 9.86434 11.0436 9.86434Z" fill="#474646"/>
<path d="M11.0436 3.96456C10.9078 3.96384 10.7778 3.91256 10.6818 3.82185C10.5858 3.73115 10.5315 3.60834 10.5307 3.48007V2.61905C10.5307 2.49055 10.5848 2.36732 10.681 2.27646C10.7771 2.1856 10.9076 2.13455 11.0436 2.13455C11.1797 2.13455 11.3101 2.1856 11.4063 2.27646C11.5025 2.36732 11.5565 2.49055 11.5565 2.61905V3.48007C11.5565 3.54369 11.5433 3.60669 11.5175 3.66548C11.4917 3.72426 11.4539 3.77767 11.4063 3.82266C11.3587 3.86765 11.3021 3.90333 11.2399 3.92768C11.1777 3.95203 11.111 3.96456 11.0436 3.96456Z" fill="#474646"/>
</g>
<defs>
<clipPath id="clip0_201_1517">
<rect width="20.4167" height="35" fill="white"/>
</clipPath>
</defs>
</svg>
