<svg width="28" height="35" viewBox="0 0 28 35" fill="none" xmlns="http://www.w3.org/2000/svg">
<g clip-path="url(#clip0_203_1604)">
<path d="M0.685938 16.5876C0.525375 16.5763 0.366462 16.626 0.241011 16.7269C0.11556 16.8277 0.0328281 16.9722 0.0093778 17.1315C-0.0140725 17.2907 0.0234889 17.4529 0.114543 17.5857C0.205597 17.7184 0.343424 17.8118 0.500434 17.8473C2.62412 18.3299 4.79375 18.5816 6.97153 18.5979C16.1734 18.5979 20.9362 13.3305 24.3227 7.73943L26.3719 8.96894C26.4764 9.03141 26.5965 9.06272 26.7182 9.05916C26.8399 9.05561 26.958 9.01735 27.0586 8.94889C27.1593 8.88043 27.2383 8.78462 27.2863 8.67275C27.3343 8.56089 27.3493 8.43764 27.3296 8.31752L26.0095 0.5522C25.9905 0.461536 25.9522 0.376046 25.8971 0.301586C25.842 0.227125 25.7714 0.165453 25.6903 0.120794C25.6066 0.063625 25.5103 0.0274982 25.4097 0.0154814C25.309 0.00346462 25.207 0.0159128 25.1122 0.0517688L18.145 3.01984C18.0362 3.06984 17.9438 3.14939 17.8781 3.24941C17.8124 3.34943 17.7761 3.46589 17.7734 3.58553C17.7707 3.70516 17.8017 3.82314 17.8628 3.92602C17.9239 4.0289 18.0127 4.11254 18.1191 4.16739L20.2114 5.17688C14.6117 17.5324 1.26402 16.635 0.685938 16.5876ZM21.6307 5.13374C21.6936 4.9838 21.697 4.8155 21.6401 4.66318C21.5831 4.51086 21.4703 4.386 21.3244 4.31406L19.931 3.63676L24.8663 1.54012L25.8154 7.1484L24.409 6.28559C24.2641 6.20417 24.0932 6.18205 23.9324 6.22388C23.7715 6.2657 23.6331 6.36823 23.5462 6.50992C20.1337 12.3167 15.6601 17.4763 6.54444 17.2951C11.4495 16.277 18.1752 13.3218 21.6307 5.13374Z" fill="#474646"/>
<path d="M2.7351 24.7282C1.5056 24.7282 0.539246 25.9318 0.539246 27.4676V32.2649C0.539246 33.8007 1.5056 35 2.7351 35H5.75495C6.98877 35 7.95081 33.8007 7.95081 32.2649V27.4676C7.95081 25.9318 6.98877 24.7282 5.75495 24.7282H2.7351ZM6.65659 27.4676V32.2649C6.65659 33.0414 6.22518 33.7274 5.73769 33.7274H2.71785C2.22604 33.7274 1.79895 33.0414 1.79895 32.2649V27.4676C1.79895 26.6868 2.23036 26.0052 2.71785 26.0052H5.73769C6.2295 26.0052 6.65659 26.6868 6.65659 27.4676Z" fill="#474646"/>
<path d="M11.8119 20.2286C10.5824 20.2286 9.61603 21.4323 9.61603 22.9681V32.2649C9.61603 33.8007 10.5824 35 11.8119 35H14.8317C16.0656 35 17.0276 33.8007 17.0276 32.2649V22.9681C17.0276 21.4323 16.0656 20.2286 14.8317 20.2286H11.8119ZM15.7377 22.9681V32.2649C15.7377 33.0414 15.3063 33.7274 14.8145 33.7274H11.7946C11.3071 33.7274 10.8757 33.0414 10.8757 32.2649V22.9681C10.8757 22.1872 11.3071 21.5056 11.7946 21.5056H14.8145C15.3063 21.5056 15.7377 22.1872 15.7377 22.9681Z" fill="#474646"/>
<path d="M24.7886 14.8318H21.7688C20.5393 14.8318 19.5729 16.0354 19.5729 17.5712V32.2649C19.5729 33.8007 20.5393 35 21.7688 35H24.7886C26.0225 35 26.9845 33.8007 26.9845 32.2649V17.5712C26.9845 16.0354 26.0225 14.8318 24.7886 14.8318ZM25.7075 32.2649C25.7075 33.0414 25.2761 33.7274 24.7886 33.7274H21.7688C21.277 33.7274 20.8499 33.0414 20.8499 32.2649V17.5712C20.8499 16.7903 21.2813 16.1087 21.7688 16.1087H24.7886C25.2804 16.1087 25.7075 16.7903 25.7075 17.5712V32.2649Z" fill="#474646"/>
</g>
<defs>
<clipPath id="clip0_203_1604">
<rect width="27.3167" height="35" fill="white"/>
</clipPath>
</defs>
</svg>
