<svg width="80" height="59" viewBox="0 0 80 59" fill="none" xmlns="http://www.w3.org/2000/svg">
<g opacity="0.5" clip-path="url(#clip0_201_314)">
<path d="M75.1439 36.3759C75.1439 47.6513 65.9039 52.2666 54.508 52.2666C43.1121 52.2666 33.8721 47.6575 33.8721 36.3759C33.8721 25.0942 43.11 11.4451 54.508 11.4451C65.906 11.4451 75.1439 25.1004 75.1439 36.3759Z" fill="#D2AA65"/>
<path d="M66.0437 32.2633C66.0437 34.5208 65.3669 36.7276 64.099 38.6046C62.8312 40.4817 61.0291 41.9446 58.9207 42.8084C56.8123 43.6722 54.4924 43.8981 52.2542 43.4575C50.016 43.017 47.9602 41.9297 46.3467 40.3333C44.7332 38.7368 43.6345 36.7029 43.1895 34.4887C42.7446 32.2746 42.9734 29.9796 43.847 27.894C44.7205 25.8085 46.1997 24.0261 48.0974 22.7722C49.995 21.5183 52.2259 20.8492 54.508 20.8496C56.0231 20.8496 57.5233 21.1449 58.923 21.7185C60.3227 22.2921 61.5945 23.1329 62.6657 24.1928C63.7369 25.2526 64.5866 26.5109 65.1662 27.8957C65.7458 29.2804 66.0439 30.7646 66.0437 32.2633Z" fill="#E8B771"/>
<path d="M64.1948 1.29472C63.7876 0.989381 63.3025 0.802186 62.7938 0.754085C62.2851 0.705985 61.773 0.798878 61.3146 1.02237L59.7411 1.76401C59.3316 1.95837 58.8806 2.05187 58.4267 2.03655C57.9727 2.02123 57.5293 1.89753 57.1341 1.67601L56.3018 0.775155C56.0728 0.53083 55.7953 0.335913 55.4866 0.202618C55.178 0.0693218 54.8448 0.000518799 54.508 0.000518799C54.1712 0.000518799 53.838 0.0693218 53.5294 0.202618C53.2207 0.335913 52.9432 0.53083 52.7142 0.775155L51.8862 1.67601C51.4917 1.89885 51.0486 2.024 50.5946 2.04078C50.1407 2.05756 49.6893 1.96548 49.2792 1.77239L47.7056 1.03075C47.2473 0.807258 46.7351 0.714365 46.2264 0.762465C45.7178 0.810566 45.2327 0.997762 44.8254 1.3031C44.2941 1.71611 43.9395 2.31182 43.8319 2.97173C43.7244 3.63164 43.8719 4.30741 44.2451 4.86464L50.5985 14.3069L54.5038 11.4367L58.4069 14.3069L64.7709 4.86464C65.147 4.3072 65.2967 3.62988 65.1899 2.96804C65.0831 2.3062 64.7277 1.70861 64.1948 1.29472Z" fill="#D2AA65"/>
<path d="M60.9504 13.1986H47.9365C47.7226 13.1981 47.5177 13.1138 47.3665 12.9642C47.2153 12.8146 47.1301 12.6119 47.1296 12.4004C47.1307 12.189 47.2161 11.9867 47.3671 11.8372C47.5182 11.6878 47.7228 11.6033 47.9365 11.6022H60.9504C61.164 11.6033 61.3686 11.6878 61.5197 11.8372C61.6708 11.9867 61.7561 12.189 61.7572 12.4004C61.7567 12.6119 61.6715 12.8146 61.5203 12.9642C61.3691 13.1138 61.1642 13.1981 60.9504 13.1986Z" fill="#7F705A"/>
<path d="M60.9504 11.6609H47.9365C47.7228 11.6598 47.5182 11.5753 47.3672 11.4259C47.2161 11.2764 47.1307 11.074 47.1296 10.8627C47.1288 10.7572 47.149 10.6527 47.1892 10.555C47.2293 10.4573 47.2886 10.3684 47.3636 10.2935C47.4385 10.2185 47.5277 10.1589 47.6261 10.1182C47.7244 10.0775 47.8299 10.0564 47.9365 10.0561H60.9504C61.1642 10.0566 61.3691 10.1409 61.5203 10.2905C61.6715 10.4401 61.7567 10.6428 61.7573 10.8543C61.7578 10.9597 61.7374 11.0641 61.6972 11.1617C61.6569 11.2592 61.5976 11.348 61.5227 11.4229C61.4478 11.4978 61.3587 11.5574 61.2605 11.5982C61.1623 11.639 61.0569 11.6603 60.9504 11.6609Z" fill="#7F705A"/>
<path d="M59.722 27.5998V27.4448C59.722 27.2823 59.6569 27.1265 59.541 27.0115C59.4251 26.8964 59.2678 26.8315 59.1036 26.8309H51.1068C50.9945 26.8309 50.8867 26.8751 50.8073 26.9537C50.7279 27.0322 50.6833 27.1388 50.6833 27.2499V28.5845C50.683 28.6512 50.696 28.7174 50.7217 28.7791C50.7473 28.8409 50.785 28.897 50.8326 28.9443C50.8802 28.9916 50.9368 29.0292 50.9991 29.0548C51.0615 29.0804 51.1283 29.0936 51.1958 29.0936H51.3038C52.2257 29.0936 52.9069 29.2269 53.3474 29.4937C53.5986 29.6455 53.7899 29.8776 53.8896 30.1515H51.2995C51.218 30.1515 51.1374 30.1674 51.0621 30.1983C50.9868 30.2291 50.9184 30.2743 50.8608 30.3313C50.8031 30.3883 50.7574 30.456 50.7262 30.5305C50.6951 30.605 50.679 30.6848 50.679 30.7654V31.0063C50.679 31.1691 50.7444 31.3252 50.8608 31.4404C50.9771 31.5555 51.135 31.6201 51.2995 31.6201H53.8621C53.7591 31.8741 53.5831 32.0926 53.3559 32.2487C52.9324 32.5475 52.2653 32.697 51.3546 32.697H51.2995C51.135 32.697 50.9771 32.7617 50.8608 32.8768C50.7444 32.9919 50.679 33.148 50.679 33.3108V34.3835C50.679 34.5463 50.7444 34.7024 50.8608 34.8175C50.9771 34.9327 51.135 34.9973 51.2995 34.9973H51.9539L54.993 39.8305C55.0486 39.9188 55.126 39.9916 55.2178 40.0422C55.3097 40.0928 55.4131 40.1194 55.5182 40.1197H57.1807C57.2935 40.1201 57.4042 40.09 57.5009 40.0326C57.5977 39.9752 57.6767 39.8928 57.7295 39.7942C57.7823 39.6956 57.8068 39.5846 57.8004 39.4732C57.794 39.3618 57.7569 39.2543 57.6932 39.1622C56.9675 38.1035 55.8662 36.4841 54.3894 34.3039C55.1298 34.003 55.7718 33.5056 56.2446 32.8667C56.5131 32.4927 56.7039 32.0697 56.8058 31.6222H59.1058C59.27 31.6211 59.427 31.5557 59.5425 31.4402C59.6581 31.3248 59.7226 31.1687 59.722 31.0063V30.7612C59.722 30.5988 59.6569 30.4429 59.541 30.3279C59.4251 30.2128 59.2678 30.1479 59.1036 30.1473H56.8588C56.7986 29.4328 56.5159 28.7543 56.0498 28.2053H59.1036C59.2664 28.2047 59.4224 28.141 59.5381 28.0277C59.6537 27.9145 59.7198 27.7608 59.722 27.5998Z" fill="#645848"/>
<path d="M59.0719 24.9789V12.1071C59.0736 11.8963 59.1593 11.6947 59.3103 11.546C59.4614 11.3974 59.6657 11.3137 59.8788 11.3131C60.0924 11.3137 60.2971 11.398 60.448 11.5476C60.5988 11.6973 60.6836 11.9 60.6836 12.1113V24.9831C60.6836 25.1945 60.5988 25.3972 60.448 25.5468C60.2971 25.6964 60.0924 25.7808 59.8788 25.7813C59.7725 25.7811 59.6674 25.7601 59.5694 25.7196C59.4713 25.6791 59.3823 25.62 59.3074 25.5454C59.2324 25.4709 59.1731 25.3826 59.1327 25.2854C59.0923 25.1882 59.0716 25.084 59.0719 24.9789Z" fill="#7F705A"/>
<path d="M56.4839 19.0982V11.5938C56.4845 11.3823 56.5697 11.1796 56.7209 11.03C56.8721 10.8805 57.077 10.7962 57.2908 10.7956C57.5043 10.7967 57.7087 10.8812 57.8594 11.0308C58.0101 11.1803 58.095 11.3827 58.0956 11.5938V19.0982C58.0956 19.3095 58.0109 19.5122 57.86 19.6619C57.7092 19.8115 57.5045 19.8958 57.2908 19.8964C57.077 19.8958 56.8721 19.8116 56.7209 19.662C56.5697 19.5124 56.4845 19.3097 56.4839 19.0982Z" fill="#7F705A"/>
<path d="M3.06448 31.6201C1.30035 35.2885 0.290161 39.2775 0.290161 43.0045C0.290161 54.2778 9.52802 58.8931 20.926 58.8931C32.324 58.8931 41.5619 54.2841 41.5619 43.0045C41.5619 39.2775 40.5496 35.2906 38.7855 31.6201H3.06448Z" fill="#E4B363"/>
<path d="M12.027 31.6201C10.6329 33.2894 9.74753 35.3165 9.47426 37.4648C9.20098 39.6131 9.55107 41.794 10.4837 43.7529C11.4162 45.7117 12.8928 47.3678 14.7411 48.5277C16.5893 49.6876 18.733 50.3035 20.9218 50.3035C23.1106 50.3035 25.2542 49.6876 27.1024 48.5277C28.9507 47.3678 30.4273 45.7117 31.3599 43.7529C32.2925 41.794 32.6426 39.6131 32.3693 37.4648C32.096 35.3165 31.2106 33.2894 29.8165 31.6201H12.027Z" fill="#F6C378"/>
<path d="M26.1337 34.2285V34.0713C26.1337 33.9091 26.0686 33.7535 25.9526 33.6388C25.8366 33.524 25.6793 33.4596 25.5153 33.4596H17.5248C17.4125 33.4596 17.3048 33.5037 17.2253 33.5823C17.1459 33.6609 17.1013 33.7675 17.1013 33.8786V35.2131C17.1013 35.3476 17.1553 35.4765 17.2514 35.5716C17.3475 35.6667 17.4779 35.7201 17.6138 35.7201H17.7218C18.6437 35.7201 19.325 35.8542 19.7655 36.1224C20.0167 36.2741 20.208 36.5062 20.3076 36.7802H17.7176C17.553 36.7802 17.3952 36.8449 17.2788 36.96C17.1624 37.0751 17.097 37.2312 17.097 37.394V37.6392C17.0976 37.8016 17.1632 37.9572 17.2795 38.0719C17.3958 38.1865 17.5534 38.2509 17.7176 38.2509H20.2801C20.1768 38.5047 20.0009 38.7231 19.7739 38.8794C19.3504 39.1797 18.6833 39.3291 17.7726 39.3277H17.7176C17.5534 39.3277 17.3958 39.3921 17.2795 39.5068C17.1632 39.6215 17.0976 39.7771 17.097 39.9395V41.0142C17.097 41.177 17.1624 41.3332 17.2788 41.4483C17.3952 41.5634 17.553 41.6281 17.7176 41.6281H18.372L21.411 46.4592C21.4663 46.5477 21.5436 46.6208 21.6356 46.6714C21.7275 46.722 21.831 46.7485 21.9362 46.7483H23.5902C23.7028 46.7489 23.8135 46.719 23.9102 46.6618C24.0069 46.6047 24.086 46.5226 24.139 46.4243C24.1919 46.326 24.2167 46.2152 24.2107 46.1039C24.2047 45.9927 24.1681 45.8852 24.1049 45.793C23.3763 44.7329 22.2744 43.1135 20.799 40.9346C21.5398 40.6335 22.182 40.1354 22.6542 39.4954C22.9227 39.1214 23.1134 38.6984 23.2154 38.2509H25.5153C25.6793 38.2509 25.8366 38.1865 25.9526 38.0717C26.0686 37.957 26.1337 37.8014 26.1337 37.6392V37.394C26.1337 37.2316 26.0686 37.0758 25.9527 36.9607C25.8368 36.8457 25.6795 36.7808 25.5153 36.7802H23.2704C23.2103 36.065 22.9277 35.3859 22.4614 34.836H25.5153C25.6786 34.836 25.8352 34.7722 25.9511 34.6583C26.0669 34.5445 26.1326 34.39 26.1337 34.2285Z" fill="#645848"/>
<path d="M39.9418 32.5902C27.4667 35.542 14.4637 35.542 1.98862 32.5902C0.576048 32.257 -0.277427 30.8995 0.0825999 29.6299L0.118603 29.5C0.307826 28.8867 0.726764 28.3682 1.28972 28.0504C1.85267 27.7326 2.51709 27.6396 3.14706 27.7905C14.8599 30.5622 27.0684 30.5622 38.7812 27.7905C39.4112 27.6396 40.0756 27.7326 40.6386 28.0504C41.2015 28.3682 41.6204 28.8867 41.8097 29.5C41.8224 29.544 41.8351 29.5859 41.8457 29.6299C42.2057 30.8995 41.3522 32.2633 39.9418 32.5902Z" fill="#EECA9B"/>
<path opacity="0.32" d="M10.5297 28.1696H10.2332C9.59789 27.3065 8.1599 26.7031 6.47413 26.7031C4.78836 26.7031 3.3419 27.3086 2.71503 28.1696H2.41854L2.38254 29.1208C2.38254 30.4616 4.21444 31.5468 6.47413 31.5468C8.73383 31.5468 10.5657 30.47 10.5657 29.1208L10.5297 28.1696Z" fill="#998329"/>
<path d="M10.426 27.5453H10.1295C9.49413 26.6822 8.05614 26.0788 6.37037 26.0788C4.6846 26.0788 3.23602 26.6843 2.60916 27.5453H2.31266L2.27878 28.5049C2.27878 29.8457 4.11068 30.933 6.37037 30.933C8.63007 30.933 10.4598 29.8457 10.4598 28.5049L10.426 27.5453Z" fill="#F1B633"/>
<path d="M6.37036 25.1403C8.60888 25.1403 10.426 26.2192 10.426 27.5474C10.426 28.8757 8.60888 29.9588 6.37036 29.9588C4.13185 29.9588 2.31265 28.882 2.31265 27.5516C2.31265 26.2213 4.12973 25.1403 6.37036 25.1403Z" fill="#F1B633"/>
<path d="M6.37037 30.2374C8.61256 30.2374 10.4302 29.0593 10.4302 27.6061C10.4302 26.1528 8.61256 24.9747 6.37037 24.9747C4.12819 24.9747 2.31055 26.1528 2.31055 27.6061C2.31055 29.0593 4.12819 30.2374 6.37037 30.2374Z" fill="#F2CD30"/>
<path d="M6.37038 29.5733C8.12015 29.5733 9.53861 28.671 9.53861 27.5579C9.53861 26.4448 8.12015 25.5425 6.37038 25.5425C4.62061 25.5425 3.20215 26.4448 3.20215 27.5579C3.20215 28.671 4.62061 29.5733 6.37038 29.5733Z" fill="#EAA00E"/>
<path d="M6.5631 29.5733C8.20643 29.5733 9.53861 28.7254 9.53861 27.6794C9.53861 26.6334 8.20643 25.7855 6.5631 25.7855C4.91977 25.7855 3.58759 26.6334 3.58759 27.6794C3.58759 28.7254 4.91977 29.5733 6.5631 29.5733Z" fill="#F1B633"/>
<path opacity="0.32" d="M22.5821 26.1417L22.3005 26.2569C21.3051 25.5593 19.649 25.465 18.0416 26.1249C16.4342 26.7848 15.3329 28.0104 15.1338 29.2025L14.85 29.3177L15.2482 30.3778C15.8623 31.8443 18.1072 32.3115 20.261 31.4253C22.4148 30.5391 23.6622 28.6347 23.0481 27.1703L22.5821 26.1417Z" fill="#998329"/>
<path d="M22.2242 26.2946L21.9489 26.4077C21.0383 25.8526 19.4669 25.8442 17.9103 26.4853C16.3537 27.1263 15.2482 28.2304 15.0068 29.2612L14.7314 29.3743L15.0682 30.2689C15.587 31.5007 17.6985 31.8024 19.7845 30.9456C21.8706 30.0887 23.1434 28.3938 22.6266 27.1619L22.2242 26.2946Z" fill="#F1B633"/>
<path d="M17.5481 25.6221C19.6172 24.7841 21.7096 25.0732 22.2242 26.2946C22.7389 27.516 21.4745 29.1962 19.4055 30.0447C17.3364 30.8932 15.2482 30.5873 14.7315 29.3743C14.2147 28.1613 15.4812 26.4727 17.5481 25.6221Z" fill="#F1B633"/>
<path d="M17.4846 25.4713C19.5558 24.6207 21.6884 25.0125 22.2497 26.347C22.8109 27.6815 21.5868 29.456 19.5156 30.3066C17.4444 31.1572 15.3117 30.7654 14.7505 29.4288C14.1893 28.0921 15.4134 26.3218 17.4846 25.4713Z" fill="#F2CD30"/>
<path d="M17.7048 25.9929C19.3207 25.3288 20.979 25.62 21.4089 26.6424C21.8388 27.6648 20.8752 29.0328 19.2593 29.6969C17.6434 30.3611 15.9852 30.0698 15.5553 29.0475C15.1254 28.0251 16.0953 26.6571 17.7048 25.9929Z" fill="#EAA00E"/>
<path d="M17.9759 26.1458C19.4944 25.5173 21.051 25.7939 21.4555 26.7555C21.86 27.7171 20.9663 28.9993 19.4372 29.6236C17.9082 30.2479 16.3622 29.9735 15.9598 29.0139C15.5574 28.0544 16.4596 26.7681 17.9759 26.1458Z" fill="#F1B633"/>
<path opacity="0.32" d="M27.4234 21.9977L27.1333 22.0585C26.3391 21.3462 24.8037 21.0529 23.1497 21.3985C21.4957 21.7442 20.2102 22.6262 19.776 23.5983L19.4859 23.6591L19.6511 24.5997C19.9306 25.9049 21.9489 26.5879 24.1599 26.1249C26.3709 25.6619 27.9359 24.2394 27.6564 22.9237L27.4234 21.9977Z" fill="#998329"/>
<path d="M27.2435 21.6415L26.9533 21.7023C26.1613 20.99 24.6237 20.6988 22.9697 21.0445C21.3157 21.3901 20.0302 22.2742 19.5982 23.2547L19.308 23.3155L19.4732 24.2561C19.7528 25.5613 21.771 26.2422 23.982 25.7792C26.193 25.3162 27.7581 23.8937 27.4785 22.578L27.2435 21.6415Z" fill="#F1B633"/>
<path d="M22.7749 20.1311C24.9668 19.6723 26.966 20.3406 27.2434 21.6416C27.5209 22.9426 25.9728 24.3651 23.7766 24.8155C21.5804 25.266 19.5833 24.606 19.308 23.305C19.0327 22.004 20.583 20.5899 22.7749 20.1311Z" fill="#F1B633"/>
<path d="M22.7389 19.9697C24.9329 19.5109 26.9575 20.284 27.2604 21.7002C27.5632 23.1165 26.0299 24.6333 23.8359 25.0921C21.6418 25.5509 19.6193 24.7778 19.3165 23.3637C19.0136 21.9495 20.5427 20.4285 22.7389 19.9697Z" fill="#F2CD30"/>
<path d="M22.8574 20.5312C24.5707 20.173 26.1464 20.7596 26.3772 21.8427C26.6081 22.9258 25.4136 24.0927 23.6982 24.4468C21.9828 24.8009 20.4093 24.2184 20.1784 23.1332C19.9476 22.048 21.1463 20.8811 22.8574 20.5312Z" fill="#EAA00E"/>
<path d="M23.0989 20.7218C24.7063 20.3845 26.1845 20.9313 26.4026 21.9537C26.6208 22.9761 25.4941 24.0697 23.8867 24.407C22.2793 24.7443 20.7989 24.1975 20.5808 23.1751C20.3627 22.1527 21.4893 21.0591 23.0989 20.7218Z" fill="#F1B633"/>
<path opacity="0.32" d="M13.7848 21.6646L13.5222 21.7924C12.5607 21.3566 10.9977 21.4865 9.49834 22.2114C7.99894 22.9363 7.01628 24.0634 6.87015 25.0439L6.60754 25.1717L7.0311 25.972C7.66645 27.0718 9.78425 27.1703 11.7898 26.1919C13.7954 25.2136 14.8903 23.5313 14.2592 22.4209L13.7848 21.6646Z" fill="#998329"/>
<path d="M13.4692 21.2498L13.2066 21.3776C12.2451 20.9397 10.6822 21.0717 9.18278 21.7966C7.68338 22.5215 6.71131 23.6528 6.56518 24.6312L6.30469 24.759L6.72825 25.5614C7.36359 26.6591 9.48139 26.7576 11.487 25.7709C13.4925 24.7841 14.5895 23.1081 13.9563 21.9998L13.4692 21.2498Z" fill="#F1B633"/>
<path d="M8.75075 21.0319C10.7309 20.0619 12.8423 20.1604 13.4692 21.2414C14.0961 22.3224 12.9991 24.0089 11.0126 24.9768C9.02606 25.9447 6.92309 25.8505 6.29622 24.7673C5.66935 23.6842 6.77696 21.9977 8.75075 21.0319Z" fill="#F1B633"/>
<path d="M8.68302 20.8957C10.6632 19.9257 12.8233 20.1038 13.5095 21.2959C14.1957 22.4879 13.1452 24.2289 11.163 25.2094C9.18071 26.1898 7.02266 26.0013 6.3365 24.8092C5.65033 23.6172 6.69229 21.8657 8.68302 20.8957Z" fill="#F2CD30"/>
<path d="M8.94134 21.3692C10.4873 20.6129 12.1646 20.7407 12.6899 21.652C13.2151 22.5634 12.387 23.9167 10.8431 24.6751C9.29925 25.4335 7.61772 25.3036 7.0925 24.3923C6.56729 23.481 7.39535 22.1192 8.94134 21.3692Z" fill="#EAA00E"/>
<path d="M9.22729 21.4781C10.678 20.7679 12.2558 20.8853 12.7492 21.7442C13.2426 22.6032 12.4654 23.8832 11.0126 24.583C9.55979 25.2827 7.98414 25.1759 7.49281 24.319C7.00148 23.4621 7.7766 22.1905 9.22729 21.4781Z" fill="#F1B633"/>
<path opacity="0.32" d="M21.9171 20.7198H21.6249C20.9493 19.9132 19.4838 19.3601 17.8128 19.3789C16.1419 19.3978 14.7632 19.9844 14.2126 20.8057H13.9224L13.95 21.7086C14.0389 22.9656 15.9153 23.9712 18.1432 23.9461C20.3711 23.921 22.1035 22.8755 22.0145 21.6143L21.9171 20.7198Z" fill="#998329"/>
<path d="M21.8134 20.3028H21.5211C20.8476 19.4963 19.38 18.9453 17.7091 18.9641C16.0381 18.983 14.6615 19.5696 14.1088 20.3887H13.8165L13.8462 21.2917C13.933 22.5487 15.8115 23.5543 18.0373 23.5292C20.2631 23.504 21.9976 22.4586 21.9108 21.1974L21.8134 20.3028Z" fill="#F1B633"/>
<path d="M17.6561 18.0863C19.8629 18.0591 21.7244 19.0521 21.8112 20.3028C21.8981 21.5536 20.1805 22.5885 17.9738 22.6074C15.767 22.6262 13.9055 21.6395 13.8165 20.3887C13.7276 19.138 15.4472 18.1114 17.6561 18.0863Z" fill="#F1B633"/>
<path d="M17.6455 17.9292C19.8544 17.904 21.7244 18.9913 21.8197 20.3594C21.915 21.7274 20.2017 22.8567 17.9928 22.8734C15.784 22.8902 13.9118 21.8112 13.8165 20.4432C13.7212 19.0751 15.4345 17.9564 17.6455 17.9292Z" fill="#F2CD30"/>
<path d="M17.6815 18.4634C19.4076 18.4362 20.8646 19.2742 20.9387 20.3217C21.0129 21.3692 19.668 22.2365 17.9484 22.2554C16.2287 22.2743 14.7717 21.4425 14.6933 20.395C14.615 19.3475 15.9577 18.4844 17.6815 18.4634Z" fill="#EAA00E"/>
<path d="M17.8891 18.6918C19.5071 18.6729 20.8773 19.4565 20.9451 20.439C21.0129 21.4216 19.757 22.2365 18.139 22.2554C16.521 22.2743 15.1508 21.4928 15.0809 20.5082C15.011 19.5235 16.269 18.7106 17.8891 18.6918Z" fill="#F1B633"/>
<path opacity="0.32" d="M40.3272 27.8219L40.0709 27.6983C39.9524 26.5921 39.012 25.3937 37.555 24.694C36.0979 23.9943 34.5689 23.9817 33.6116 24.5662L33.3575 24.4426L32.8619 25.3686C32.2097 26.6822 33.2559 28.5111 35.1915 29.4497C37.1272 30.3883 39.2344 30.0887 39.8846 28.7751L40.3272 27.8219Z" fill="#998329"/>
<path d="M40.7169 27.847L40.45 27.7192C40.27 26.6717 39.2386 25.5027 37.7244 24.7694C36.2102 24.0362 34.6451 23.9461 33.7006 24.4447L33.4337 24.3169L32.9784 25.1549C32.3854 26.3533 33.5502 28.1215 35.5791 29.104C37.6079 30.0866 39.7342 29.9148 40.3272 28.7165L40.7169 27.847Z" fill="#F1B633"/>
<path d="M38.1395 23.9314C40.1514 24.9056 41.3056 26.655 40.7169 27.847C40.1281 29.0391 38.0209 29.2067 36.009 28.2325C33.9971 27.2583 32.845 25.509 33.4316 24.3169C34.0183 23.1248 36.1276 22.9572 38.1395 23.9314Z" fill="#F1B633"/>
<path d="M38.2136 23.7848C40.2277 24.759 41.3374 26.6047 40.6957 27.9015C40.054 29.1983 37.9087 29.4623 35.8841 28.4923C33.8594 27.5223 32.7603 25.6724 33.402 24.3735C34.0437 23.0746 36.1996 22.8085 38.2136 23.7848Z" fill="#F2CD30"/>
<path d="M37.9616 24.2897C39.5331 25.0522 40.4077 26.4769 39.9143 27.4699C39.4208 28.4629 37.7499 28.6536 36.1785 27.8889C34.607 27.1242 33.7324 25.7038 34.2258 24.7087C34.7193 23.7135 36.3902 23.5292 37.9616 24.2897Z" fill="#EAA00E"/>
<path d="M38.0273 24.5934C39.5097 25.3099 40.323 26.6466 39.8613 27.5809C39.3996 28.5153 37.8261 28.6913 36.3521 27.9769C34.8781 27.2625 34.0543 25.9238 34.5159 24.9894C34.9776 24.055 36.5511 23.8832 38.0273 24.5934Z" fill="#F1B633"/>
<path d="M35.0983 22.8755H34.8018C34.1517 22.0375 32.684 21.4719 31.0025 21.5179C29.321 21.564 27.8872 22.203 27.2857 23.0808H26.9893V24.0341C27.0253 25.3686 28.8953 26.3993 31.1444 26.3386C33.3935 26.2778 35.2042 25.1465 35.1682 23.812L35.0983 22.8755Z" fill="#F1B633"/>
<path d="M30.9771 20.5919C33.2156 20.5291 35.0624 21.5536 35.0984 22.8755C35.1344 24.1975 33.3491 25.3183 31.1105 25.3895C28.872 25.4608 27.0253 24.4279 26.9893 23.106C26.9533 21.784 28.7386 20.6527 30.9771 20.5919Z" fill="#F1B633"/>
<path d="M30.9729 20.4265C33.2135 20.3657 35.0645 21.4886 35.1026 22.9405C35.1407 24.3923 33.3596 25.6054 31.1169 25.664C28.8741 25.7227 27.0274 24.6039 26.9872 23.15C26.9469 21.696 28.7301 20.4872 30.9729 20.4265Z" fill="#F2CD30"/>
<path d="M30.9877 20.99C32.737 20.9439 34.1792 21.8029 34.211 22.9091C34.2427 24.0152 32.8492 24.9538 31.0999 25.0041C29.3506 25.0544 27.9063 24.1933 27.8766 23.085C27.847 21.9768 29.2384 21.0382 30.9877 20.99Z" fill="#EAA00E"/>
<path d="M31.1867 21.2288C32.8302 21.1848 34.1856 21.9914 34.2152 23.0326C34.2449 24.0739 32.9339 24.9517 31.2926 24.9957C29.6513 25.0397 28.2938 24.2331 28.2663 23.194C28.2388 22.1548 29.5454 21.2749 31.1867 21.2288Z" fill="#F1B633"/>
<path opacity="0.32" d="M34.3952 27.7967L34.0966 27.759C33.5862 26.8268 32.2287 26.0474 30.5578 25.8337C28.8868 25.62 27.3811 26.0432 26.6398 26.8058L26.3454 26.7681L26.1866 27.7109C26.013 29.0328 27.6903 30.338 29.9309 30.6229C32.1715 30.9079 34.1284 30.0698 34.302 28.7479L34.3952 27.7967Z" fill="#998329"/>
<path d="M34.3953 27.1724L34.1009 27.1347C33.5905 26.2045 32.233 25.4231 30.562 25.2094C28.8911 24.9957 27.3853 25.4189 26.6441 26.1836L26.3497 26.1458L26.1909 27.0865C26.0172 28.4085 27.6945 29.7137 29.9352 30.0007C32.1758 30.2877 34.1326 29.4455 34.3063 28.1152L34.3953 27.1724Z" fill="#F1B633"/>
<path d="M30.6827 24.2834C32.9043 24.5683 34.5668 25.8609 34.3952 27.1724C34.2237 28.4839 32.2774 29.3177 30.0622 29.0349C27.847 28.7521 26.1782 27.4573 26.3497 26.1458C26.5213 24.8344 28.4612 24.0005 30.6827 24.2834Z" fill="#F1B633"/>
<path d="M30.7082 24.1221C32.9318 24.4049 34.5816 25.7981 34.3952 27.2311C34.2089 28.6641 32.2542 29.5984 30.0305 29.3135C27.8068 29.0286 26.1549 27.6375 26.3412 26.2024C26.5276 24.7673 28.4802 23.8371 30.7082 24.1221Z" fill="#F2CD30"/>
<path d="M30.6298 24.6814C32.3664 24.9035 33.6561 25.972 33.5121 27.0718C33.3681 28.1717 31.8454 28.8819 30.1109 28.6599C28.3765 28.4378 27.0846 27.3672 27.2286 26.2695C27.3726 25.1717 28.8953 24.4594 30.6298 24.6814Z" fill="#EAA00E"/>
<path d="M30.7908 24.9475C32.4194 25.157 33.6307 26.1605 33.4973 27.1934C33.3639 28.2262 31.9323 28.8924 30.3016 28.6829C28.6709 28.4734 27.4595 27.4699 27.595 26.4392C27.7305 25.4084 29.1601 24.7401 30.7908 24.9475Z" fill="#F1B633"/>
<path opacity="0.32" d="M16.5485 28.9574C16.5485 29.6256 16.3482 30.2789 15.973 30.8346C15.5977 31.3902 15.0643 31.8234 14.4402 32.0792C13.8162 32.335 13.1294 32.4021 12.4669 32.2719C11.8043 32.1416 11.1956 31.82 10.7178 31.3476C10.2399 30.8752 9.91444 30.2733 9.78239 29.6179C9.65034 28.9625 9.71769 28.2831 9.97591 27.6656C10.2341 27.0481 10.6716 26.5202 11.2331 26.1486C11.7946 25.7771 12.4549 25.5785 13.1304 25.5781C13.5792 25.5778 14.0236 25.665 14.4383 25.8347C14.853 26.0044 15.2298 26.2533 15.5472 26.5671C15.8647 26.8809 16.1165 27.2536 16.2883 27.6637C16.4601 28.0738 16.5485 28.5134 16.5485 28.9574Z" fill="#998329"/>
<path d="M16.0572 28.375C16.0572 29.0433 15.8568 29.6967 15.4815 30.2524C15.1061 30.8081 14.5726 31.2412 13.9484 31.497C13.3242 31.7528 12.6374 31.8197 11.9747 31.6893C11.3121 31.5589 10.7034 31.2371 10.2257 30.7645C9.74795 30.2919 9.42261 29.6897 9.2908 29.0342C9.15899 28.3787 9.22664 27.6993 9.48519 27.0818C9.74374 26.4643 10.1816 25.9365 10.7433 25.5652C11.3051 25.1939 11.9656 24.9957 12.6412 24.9957C13.5472 24.9957 14.416 25.3517 15.0567 25.9855C15.6973 26.6192 16.0572 27.4787 16.0572 28.375Z" fill="#F2CD30"/>
<path d="M15.3075 28.375C15.3075 28.8966 15.1511 29.4066 14.8581 29.8404C14.5651 30.2741 14.1487 30.6122 13.6615 30.8118C13.1743 31.0115 12.6382 31.0637 12.121 30.9619C11.6038 30.8601 11.1287 30.6089 10.7558 30.2401C10.3829 29.8712 10.129 29.4012 10.0261 28.8895C9.92321 28.3779 9.97601 27.8476 10.1778 27.3656C10.3796 26.8836 10.7214 26.4717 11.1598 26.1819C11.5983 25.892 12.1138 25.7373 12.6412 25.7373C12.9913 25.7373 13.338 25.8056 13.6615 25.9381C13.985 26.0707 14.2789 26.265 14.5265 26.5099C14.7741 26.7548 14.9705 27.0456 15.1045 27.3656C15.2385 27.6856 15.3075 28.0286 15.3075 28.375Z" fill="#EAA00E"/>
<path d="M14.9834 28.5363C14.9839 29.0266 14.8373 29.5059 14.5622 29.9138C14.2872 30.3216 13.8961 30.6396 13.4383 30.8275C12.9805 31.0154 12.4767 31.0648 11.9906 30.9694C11.5045 30.874 11.0579 30.6381 10.7073 30.2916C10.3567 29.9451 10.1179 29.5035 10.021 29.0227C9.92417 28.5418 9.97366 28.0434 10.1632 27.5904C10.3528 27.1374 10.6739 26.7502 11.086 26.4778C11.498 26.2054 11.9825 26.06 12.4781 26.06C13.1422 26.06 13.7791 26.3208 14.2489 26.7851C14.7187 27.2495 14.9829 27.8793 14.9834 28.5363Z" fill="#F1B633"/>
<path opacity="0.32" d="M27.9338 26.2171C28.2451 26.8104 28.3715 27.4816 28.2971 28.146C28.2227 28.8104 27.9507 29.438 27.5157 29.9494C27.0807 30.4609 26.5021 30.8332 25.8531 31.0194C25.2041 31.2055 24.5139 31.197 23.8698 30.9951C23.2257 30.7932 22.6566 30.4068 22.2345 29.8848C21.8123 29.3629 21.5562 28.7288 21.4984 28.0629C21.4406 27.3969 21.5837 26.7289 21.9097 26.1434C22.2357 25.5579 22.7299 25.0812 23.3297 24.7736C24.1338 24.3613 25.0705 24.2817 25.9339 24.5524C26.7973 24.8231 27.5166 25.4218 27.9338 26.2171Z" fill="#998329"/>
<path d="M27.2286 25.9238C27.5396 26.517 27.6659 27.1882 27.5913 27.8524C27.5168 28.5167 27.2448 29.1441 26.8098 29.6555C26.3748 30.1668 25.7964 30.5391 25.1475 30.7252C24.4987 30.9113 23.8086 30.9029 23.1646 30.7011C22.5205 30.4993 21.9515 30.1131 21.5293 29.5913C21.1071 29.0696 20.8508 28.4357 20.7928 27.7699C20.7347 27.104 20.8776 26.4361 21.2033 25.8506C21.5289 25.2651 22.0228 24.7882 22.6224 24.4803C23.4268 24.0679 24.3638 23.9883 25.2275 24.2589C26.0912 24.5296 26.811 25.1284 27.2286 25.9238Z" fill="#F2CD30"/>
<path d="M26.5615 26.2653C26.804 26.7282 26.9024 27.2518 26.8442 27.77C26.7861 28.2882 26.574 28.7777 26.2347 29.1768C25.8954 29.5758 25.4443 29.8664 24.9381 30.0118C24.432 30.1573 23.8937 30.1511 23.3911 29.9941C22.8885 29.837 22.4443 29.5362 22.1144 29.1295C21.7846 28.7228 21.5841 28.2285 21.5381 27.7091C21.4921 27.1897 21.6027 26.6685 21.856 26.2113C22.1093 25.7541 22.4939 25.3814 22.9612 25.1403C23.2723 24.9801 23.6122 24.8822 23.9615 24.852C24.3108 24.8219 24.6627 24.8602 24.9971 24.9646C25.3314 25.0691 25.6417 25.2378 25.9101 25.4609C26.1786 25.6841 26.3999 25.9574 26.5615 26.2653Z" fill="#EAA00E"/>
<path d="M26.3476 26.5565C26.5754 26.9912 26.6679 27.4831 26.6132 27.9698C26.5585 28.4565 26.3592 28.9162 26.0404 29.2909C25.7216 29.6655 25.2977 29.9383 24.8223 30.0746C24.3468 30.211 23.8411 30.2048 23.3692 30.0569C22.8973 29.909 22.4803 29.626 22.171 29.2437C21.8616 28.8614 21.6738 28.3969 21.6313 27.909C21.5887 27.4211 21.6934 26.9317 21.932 26.5027C22.1706 26.0736 22.5325 25.7241 22.9718 25.4985C23.2637 25.3486 23.5825 25.2571 23.9102 25.2291C24.2378 25.2011 24.5678 25.2373 24.8813 25.3356C25.1948 25.4338 25.4856 25.5922 25.7372 25.8017C25.9888 26.0112 26.1962 26.2677 26.3476 26.5565Z" fill="#F1B633"/>
<path opacity="0.32" d="M18.0373 27.3505C17.436 27.6553 16.7569 27.7768 16.0858 27.6998C15.4146 27.6227 14.7817 27.3505 14.2669 26.9176C13.7522 26.4847 13.3788 25.9105 13.1939 25.2677C13.009 24.6248 13.021 23.9422 13.2284 23.306C13.4357 22.6699 13.8291 22.1089 14.3587 21.694C14.8883 21.279 15.5305 21.0287 16.2039 20.9748C16.8773 20.9209 17.5518 21.0657 18.142 21.391C18.7323 21.7162 19.2117 22.2074 19.5198 22.8022C19.9329 23.5998 20.0088 24.5271 19.7307 25.3801C19.4527 26.233 18.8436 26.9418 18.0373 27.3505Z" fill="#998329"/>
<path d="M17.8255 26.8309C17.2242 27.1357 16.5451 27.2573 15.874 27.1802C15.2028 27.1032 14.5699 26.831 14.0551 26.3981C13.5404 25.9652 13.167 25.391 12.9821 24.7481C12.7972 24.1052 12.8092 23.4226 13.0166 22.7865C13.2239 22.1504 13.6173 21.5893 14.1469 21.1744C14.6766 20.7594 15.3187 20.5092 15.9921 20.4552C16.6656 20.4013 17.34 20.5461 17.9302 20.8714C18.5205 21.1967 18.9999 21.6878 19.308 22.2826C19.5128 22.6775 19.637 23.1085 19.6733 23.5508C19.7096 23.9932 19.6575 24.4383 19.5198 24.8608C19.3821 25.2832 19.1616 25.6746 18.8709 26.0127C18.5802 26.3507 18.225 26.6288 17.8255 26.8309Z" fill="#F2CD30"/>
<path d="M17.4846 26.171C17.0155 26.4103 16.4852 26.5065 15.9608 26.4474C15.4365 26.3884 14.9416 26.1767 14.539 25.8392C14.1363 25.5017 13.8439 25.0536 13.6989 24.5516C13.5538 24.0497 13.5626 23.5164 13.7242 23.0194C13.8857 22.5224 14.1927 22.084 14.6063 21.7597C15.0199 21.4354 15.5215 21.2398 16.0475 21.1977C16.5735 21.1556 17.1004 21.2689 17.5613 21.5232C18.0222 21.7775 18.3964 22.1614 18.6366 22.6262C18.9583 23.2476 19.0177 23.9697 18.8017 24.6343C18.5857 25.2989 18.112 25.8515 17.4846 26.171Z" fill="#EAA00E"/>
<path d="M17.1902 25.9594C16.7497 26.183 16.2521 26.2725 15.7602 26.2163C15.2684 26.1602 14.8044 25.961 14.427 25.644C14.0495 25.3269 13.7756 24.9063 13.6399 24.4353C13.5041 23.9643 13.5126 23.464 13.6643 22.9977C13.816 22.5315 14.104 22.1202 14.492 21.8159C14.88 21.5116 15.3505 21.3279 15.8439 21.2882C16.3374 21.2484 16.8318 21.3543 17.2644 21.5925C17.6971 21.8306 18.0486 22.1904 18.2746 22.6262C18.5775 23.2105 18.6334 23.8898 18.4301 24.5149C18.2267 25.14 17.7808 25.6596 17.1902 25.9594Z" fill="#F1B633"/>
<path d="M51.397 36.4219L51.1174 37.0023H41.6148V56.7793L40.9604 58.1431L41.6148 58.7234H52.0514V37.0023L51.397 36.4219Z" fill="#58A967"/>
<path d="M51.397 58.1431V36.4219H40.9604V58.1431H51.397Z" fill="#58C670"/>
<path d="M48.3939 56.6703C48.3939 55.5998 49.1924 55.0404 50.0289 54.9943V39.5163H49.9082C49.6769 39.5166 49.4478 39.4717 49.234 39.3844C49.0203 39.297 48.826 39.1688 48.6624 39.0071C48.4987 38.8454 48.3689 38.6534 48.2803 38.4421C48.1918 38.2307 48.1462 38.0041 48.1462 37.7753H44.2219C44.2219 37.8151 44.2219 37.8549 44.2219 37.8947C44.2222 38.1239 44.1767 38.3509 44.0881 38.5626C43.9995 38.7743 43.8696 38.9667 43.7057 39.1286C43.5418 39.2906 43.3472 39.4189 43.133 39.5063C42.9189 39.5937 42.6894 39.6384 42.4577 39.6378H42.3222V54.9838C43.2074 54.9838 44.0969 55.5411 44.0969 56.6703C44.0969 56.7122 44.0969 56.7499 44.0969 56.7897H48.4003C48.3982 56.7499 48.3939 56.7122 48.3939 56.6703Z" fill="#A4E894"/>
<path d="M46.1787 50.4795C47.8852 50.4795 49.2686 49.111 49.2686 47.4229C49.2686 45.7348 47.8852 44.3663 46.1787 44.3663C44.4722 44.3663 43.0888 45.7348 43.0888 47.4229C43.0888 49.111 44.4722 50.4795 46.1787 50.4795Z" fill="#58C670"/>
<path d="M48.0741 48.8538H48.1228C48.1756 48.8538 48.2263 48.8331 48.2636 48.7961C48.3009 48.7592 48.3219 48.7091 48.3219 48.6569V46.1282C48.3219 46.0921 48.3074 46.0574 48.2816 46.0319C48.2558 46.0064 48.2208 45.992 48.1843 45.992H47.7607C47.7169 45.992 47.6749 46.0092 47.6439 46.0399C47.6129 46.0705 47.5955 46.1121 47.5955 46.1554V46.1889C47.6108 46.4122 47.5662 46.6355 47.4663 46.8363C47.4169 46.9152 47.3424 46.9756 47.2545 47.0081V46.1889C47.2545 46.1371 47.2339 46.0873 47.197 46.0504C47.1601 46.0135 47.11 45.9926 47.0576 45.992H46.9771C46.9243 45.992 46.8737 46.0128 46.8363 46.0497C46.799 46.0866 46.778 46.1367 46.778 46.1889V46.9997C46.6925 46.9695 46.6186 46.9139 46.5663 46.8405C46.4558 46.6499 46.4049 46.4312 46.4201 46.212V46.1952C46.4201 46.1434 46.3994 46.0936 46.3626 46.0567C46.3257 46.0198 46.2756 45.9988 46.2232 45.9983H45.8737C45.8213 45.9988 45.7712 46.0198 45.7343 46.0567C45.6975 46.0936 45.6768 46.1434 45.6768 46.1952V46.4047L44.1138 47.3663C44.0849 47.3838 44.0611 47.4085 44.0447 47.4379C44.0284 47.4673 44.0201 47.5004 44.0207 47.5339V48.0577C44.0204 48.0934 44.0301 48.1284 44.0486 48.159C44.0672 48.1896 44.0938 48.2146 44.1257 48.2313C44.1576 48.2479 44.1935 48.2556 44.2295 48.2534C44.2655 48.2512 44.3002 48.2393 44.3299 48.219C44.6701 47.9886 45.1939 47.6394 45.9013 47.1715C45.9982 47.4056 46.1588 47.6086 46.3651 47.7581C46.4865 47.8423 46.6231 47.9027 46.7674 47.9362V48.6632C46.7674 48.7154 46.7884 48.7655 46.8258 48.8024C46.8631 48.8393 46.9137 48.8601 46.9665 48.8601H47.047C47.0994 48.8595 47.1495 48.8385 47.1864 48.8017C47.2233 48.7648 47.244 48.715 47.244 48.6632V47.9529C47.4776 47.936 47.7 47.8465 47.8793 47.6974V48.6632C47.8809 48.7136 47.902 48.7615 47.9383 48.7969C47.9745 48.8324 48.0232 48.8528 48.0741 48.8538Z" fill="#DDFAD9"/>
<path d="M76.3743 44.8104H52.3648V46.6561H76.3743V44.8104Z" fill="#58C670"/>
<path d="M76.3743 46.2224H52.3648V46.6561H76.3743V46.2224Z" fill="#58A967"/>
<path d="M76.3722 44.8104H72.4988V46.6561H76.3722V44.8104Z" fill="#4DB761"/>
<path d="M76.3722 46.2224H72.4988V46.6561H76.3722V46.2224Z" fill="#4C9B57"/>
<path d="M76.3743 46.5304H52.3648V48.3761H76.3743V46.5304Z" fill="#58C670"/>
<path d="M76.3743 47.9424H52.3648V48.3761H76.3743V47.9424Z" fill="#58A967"/>
<path d="M76.3722 46.5304H72.4988V48.3761H76.3722V46.5304Z" fill="#4DB761"/>
<path d="M76.3722 47.9424H72.4988V48.3761H76.3722V47.9424Z" fill="#4C9B57"/>
<path d="M76.3743 48.2484H52.3648V50.0941H76.3743V48.2484Z" fill="#58C670"/>
<path d="M76.3743 49.6604H52.3648V50.094H76.3743V49.6604Z" fill="#58A967"/>
<path d="M76.3722 48.2484H72.4988V50.0941H76.3722V48.2484Z" fill="#4DB761"/>
<path d="M76.3722 49.6604H72.4988V50.094H76.3722V49.6604Z" fill="#4C9B57"/>
<path d="M76.3743 49.9684H52.3648V51.8141H76.3743V49.9684Z" fill="#58C670"/>
<path d="M76.3743 51.3804H52.3648V51.8141H76.3743V51.3804Z" fill="#58A967"/>
<path d="M76.3722 49.9684H72.4988V51.8141H76.3722V49.9684Z" fill="#4DB761"/>
<path d="M76.3722 51.3804H72.4988V51.8141H76.3722V51.3804Z" fill="#4C9B57"/>
<path d="M62.8288 44.7811H60.7301V51.8078H62.8288V44.7811Z" fill="#A4E894"/>
<path d="M55.9905 53.6556H80V51.8099H55.9905V53.6556Z" fill="#5CD673"/>
<path d="M55.9905 53.6556H80V53.2219H55.9905V53.6556Z" fill="#58A967"/>
<path d="M55.9926 53.6556H59.8661V51.8099H55.9926V53.6556Z" fill="#4AC65D"/>
<path d="M55.9926 53.6556H59.8661V53.2219H55.9926V53.6556Z" fill="#4C9B57"/>
<path d="M55.9905 55.3735H80V53.5278H55.9905V55.3735Z" fill="#5CD673"/>
<path d="M55.9905 55.3735H80V54.9398H55.9905V55.3735Z" fill="#58A967"/>
<path d="M55.9926 55.3735H59.8661V53.5278H55.9926V55.3735Z" fill="#4AC65D"/>
<path d="M55.9926 55.3735H59.8661V54.9398H55.9926V55.3735Z" fill="#4C9B57"/>
<path d="M55.9905 57.0935H80V55.2478H55.9905V57.0935Z" fill="#5CD673"/>
<path d="M55.9905 57.0935H80V56.6598H55.9905V57.0935Z" fill="#58A967"/>
<path d="M55.9926 57.0935H59.8661V55.2478H55.9926V57.0935Z" fill="#4AC65D"/>
<path d="M55.9926 57.0935H59.8661V56.6598H55.9926V57.0935Z" fill="#4C9B57"/>
<path d="M55.9905 58.8114H80V56.9657H55.9905V58.8114Z" fill="#5CD673"/>
<path d="M55.9905 58.8114H80V58.3778H55.9905V58.8114Z" fill="#58A967"/>
<path d="M55.9926 58.8114H59.8661V56.9657H55.9926V58.8114Z" fill="#4AC65D"/>
<path d="M55.9926 58.8114H59.8661V58.3778H55.9926V58.8114Z" fill="#4C9B57"/>
<path d="M69.536 58.8073H71.6347V51.7805H69.536V58.8073Z" fill="#A4E894"/>
<path d="M8.8969 53.6556H32.9064V51.8099H8.8969V53.6556Z" fill="#5CD673"/>
<path d="M8.8969 53.6556H32.9064V53.2219H8.8969V53.6556Z" fill="#58A967"/>
<path d="M8.899 53.6556H12.7725V51.8099H8.899V53.6556Z" fill="#4AC65D"/>
<path d="M8.899 53.6556H12.7725V53.2219H8.899V53.6556Z" fill="#4C9B57"/>
<path d="M8.8969 55.3735H32.9064V53.5278H8.8969V55.3735Z" fill="#5CD673"/>
<path d="M8.8969 55.3735H32.9064V54.9398H8.8969V55.3735Z" fill="#58A967"/>
<path d="M8.899 55.3735H12.7725V53.5278H8.899V55.3735Z" fill="#4AC65D"/>
<path d="M8.899 55.3735H12.7725V54.9398H8.899V55.3735Z" fill="#4C9B57"/>
<path d="M8.8969 57.0935H32.9064V55.2478H8.8969V57.0935Z" fill="#5CD673"/>
<path d="M8.8969 57.0935H32.9064V56.6598H8.8969V57.0935Z" fill="#58A967"/>
<path d="M8.899 57.0935H12.7725V55.2478H8.899V57.0935Z" fill="#4AC65D"/>
<path d="M8.899 57.0935H12.7725V56.6598H8.899V57.0935Z" fill="#4C9B57"/>
<path d="M8.8969 58.8114H32.9064V56.9657H8.8969V58.8114Z" fill="#5CD673"/>
<path d="M8.8969 58.8114H32.9064V58.3778H8.8969V58.8114Z" fill="#58A967"/>
<path d="M8.899 58.8114H12.7725V56.9657H8.899V58.8114Z" fill="#4AC65D"/>
<path d="M8.899 58.8114H12.7725V58.3778H8.899V58.8114Z" fill="#4C9B57"/>
<path d="M22.4445 58.8073H24.5432V51.7805H22.4445V58.8073Z" fill="#A4E894"/>
<path d="M40.7084 57.215H32.4723C32.2442 57.215 32.0593 57.3979 32.0593 57.6236V58.4029C32.0593 58.6285 32.2442 58.8114 32.4723 58.8114H40.7084C40.9365 58.8114 41.1214 58.6285 41.1214 58.4029V57.6236C41.1214 57.3979 40.9365 57.215 40.7084 57.215Z" fill="#F1B633"/>
<path d="M40.7783 57.215H39.2535V58.8114H40.7783C40.8693 58.8114 40.9566 58.7757 41.0209 58.712C41.0852 58.6484 41.1214 58.5621 41.1214 58.472V57.5523C41.1214 57.5079 41.1125 57.4638 41.0952 57.4228C41.078 57.3817 41.0527 57.3444 41.0208 57.3131C40.9889 57.2817 40.951 57.2569 40.9094 57.2401C40.8678 57.2233 40.8233 57.2148 40.7783 57.215Z" fill="#FAC55D"/>
<path d="M37.8303 57.215H33.5609V58.8114H37.8303V57.215Z" fill="#FAC55D"/>
<path d="M41.0663 57.3701C41.0358 57.3219 40.9933 57.2824 40.9428 57.2552C40.8924 57.2281 40.8357 57.2142 40.7783 57.215H32.4024C32.3451 57.2148 32.2887 57.2289 32.2383 57.256C32.188 57.2831 32.1453 57.3224 32.1144 57.3701H41.0663Z" fill="#E0A022"/>
<path d="M32.1144 58.6606C32.1445 58.7089 32.1865 58.7489 32.2366 58.7767C32.2866 58.8046 32.3429 58.8194 32.4003 58.8198H40.7783C40.8361 58.8197 40.8928 58.8051 40.9432 58.7772C40.9936 58.7493 41.036 58.7092 41.0663 58.6606H32.1144Z" fill="#E0A022"/>
<path d="M40.3102 55.6333H32.0741C31.846 55.6333 31.6611 55.8162 31.6611 56.0418V56.8212C31.6611 57.0468 31.846 57.2297 32.0741 57.2297H40.3102C40.5383 57.2297 40.7232 57.0468 40.7232 56.8212V56.0418C40.7232 55.8162 40.5383 55.6333 40.3102 55.6333Z" fill="#F1B633"/>
<path d="M40.3823 55.6333H38.8553V57.2318H40.3823C40.4731 57.2312 40.56 57.1953 40.6243 57.1318C40.6885 57.0682 40.7248 56.9822 40.7254 56.8924V55.9727C40.7248 55.8828 40.6885 55.7968 40.6243 55.7333C40.56 55.6698 40.4731 55.6338 40.3823 55.6333Z" fill="#FAC55D"/>
<path d="M37.4321 55.6333H33.1627V57.2297H37.4321V55.6333Z" fill="#FAC55D"/>
<path d="M40.6618 55.7904C40.631 55.7424 40.5884 55.7029 40.5381 55.6755C40.4878 55.648 40.4313 55.6335 40.3738 55.6333H32.0043C31.9468 55.6335 31.8903 55.648 31.84 55.6755C31.7897 55.7029 31.7471 55.7424 31.7162 55.7904H40.6618Z" fill="#E0A022"/>
<path d="M31.7162 57.0726C31.747 57.1208 31.7895 57.1606 31.8398 57.1884C31.8901 57.2162 31.9466 57.2311 32.0043 57.2318H40.3823C40.44 57.2315 40.4967 57.2168 40.5471 57.1889C40.5974 57.1611 40.6399 57.1211 40.6703 57.0726H31.7162Z" fill="#E0A022"/>
<path d="M40.6639 54.0536H32.4278C32.1997 54.0536 32.0148 54.2366 32.0148 54.4622V55.2415C32.0148 55.4671 32.1997 55.6501 32.4278 55.6501H40.6639C40.892 55.6501 41.0769 55.4671 41.0769 55.2415V54.4622C41.0769 54.2366 40.892 54.0536 40.6639 54.0536Z" fill="#F1B633"/>
<path d="M40.7359 54.0515H39.209V55.65H40.7359C40.7817 55.6509 40.8272 55.6427 40.8697 55.6258C40.9122 55.609 40.9508 55.584 40.9834 55.5522C41.016 55.5203 41.0418 55.4824 41.0593 55.4405C41.0768 55.3987 41.0856 55.3538 41.0854 55.3086V54.3888C41.0851 54.3439 41.0758 54.2995 41.058 54.2581C41.0403 54.2168 41.0144 54.1793 40.9819 54.148C40.9494 54.1166 40.9109 54.0919 40.8687 54.0754C40.8265 54.0588 40.7813 54.0507 40.7359 54.0515Z" fill="#FAC55D"/>
<path d="M37.7858 54.0536H33.5164V55.6501H37.7858V54.0536Z" fill="#FAC55D"/>
<path d="M41.0218 54.2108C40.9916 54.1627 40.9495 54.123 40.8995 54.0955C40.8494 54.068 40.7932 54.0536 40.7359 54.0536H32.3579C32.3003 54.0533 32.2436 54.0675 32.1932 54.095C32.1428 54.1225 32.1003 54.1624 32.0699 54.2108H41.0218Z" fill="#E0A022"/>
<path d="M32.0699 55.4929C32.1002 55.5415 32.1426 55.5817 32.193 55.6096C32.2434 55.6374 32.3002 55.6521 32.3579 55.6521H40.7359C40.7933 55.6517 40.8497 55.6369 40.8997 55.609C40.9497 55.5812 40.9917 55.5412 41.0218 55.4929H32.0699Z" fill="#E0A022"/>
<path d="M41.06 52.474H32.8239C32.5958 52.474 32.4109 52.6569 32.4109 52.8825V53.6619C32.4109 53.8875 32.5958 54.0704 32.8239 54.0704H41.06C41.2881 54.0704 41.473 53.8875 41.473 53.6619V52.8825C41.473 52.6569 41.2881 52.474 41.06 52.474Z" fill="#F1B633"/>
<path d="M41.132 52.474H39.6029V54.0704H41.1298C41.2205 54.0704 41.3074 54.0349 41.3717 53.9717C41.436 53.9085 41.4724 53.8228 41.4729 53.7331V52.8134C41.4724 52.7239 41.4363 52.6382 41.3726 52.5747C41.3088 52.5113 41.2224 52.4751 41.132 52.474Z" fill="#FAC55D"/>
<path d="M38.1819 52.474H33.9124V54.0704H38.1819V52.474Z" fill="#FAC55D"/>
<path d="M41.42 52.6311C41.3891 52.5832 41.3466 52.5436 41.2963 52.5162C41.246 52.4887 41.1895 52.4742 41.132 52.474H32.754C32.6965 52.4742 32.64 52.4887 32.5897 52.5162C32.5394 52.5436 32.4968 52.5832 32.4659 52.6311H41.42Z" fill="#E0A022"/>
<path d="M32.4659 53.9133C32.4967 53.9614 32.5392 54.001 32.5895 54.0285C32.6399 54.0559 32.6965 54.0704 32.754 54.0704H41.132C41.1895 54.0702 41.246 54.0557 41.2963 54.0282C41.3466 54.0008 41.3891 53.9612 41.42 53.9133H32.4659Z" fill="#E0A022"/>
<path d="M40.2679 50.8943H32.0317C31.8037 50.8943 31.6188 51.0773 31.6188 51.3029V52.0822C31.6188 52.3079 31.8037 52.4908 32.0317 52.4908H40.2679C40.496 52.4908 40.6809 52.3079 40.6809 52.0822V51.3029C40.6809 51.0773 40.496 50.8943 40.2679 50.8943Z" fill="#F1B633"/>
<path d="M40.3378 50.8944H38.813V52.4908H40.3378C40.3828 52.491 40.4273 52.4825 40.4689 52.4657C40.5105 52.4489 40.5484 52.4241 40.5803 52.3927C40.6122 52.3614 40.6375 52.3241 40.6547 52.283C40.672 52.242 40.6809 52.1979 40.6809 52.1535V51.2338C40.6812 51.1891 40.6725 51.1448 40.6553 51.1035C40.6382 51.0622 40.6129 51.0247 40.581 50.9931C40.5491 50.9616 40.5112 50.9366 40.4694 50.9196C40.4277 50.9027 40.3829 50.8941 40.3378 50.8944Z" fill="#FAC55D"/>
<path d="M37.3898 50.8943H33.1203V52.4908H37.3898V50.8943Z" fill="#FAC55D"/>
<path d="M40.6258 51.0515C40.595 51.0035 40.5524 50.964 40.5021 50.9365C40.4518 50.9091 40.3953 50.8946 40.3378 50.8943H31.9598C31.9023 50.8946 31.8458 50.9091 31.7955 50.9365C31.7452 50.964 31.7026 51.0035 31.6718 51.0515H40.6258Z" fill="#E0A022"/>
<path d="M31.6739 52.3315C31.7036 52.3803 31.7455 52.4206 31.7956 52.4485C31.8457 52.4764 31.9023 52.491 31.9598 52.4908H40.3378C40.3956 52.4909 40.4525 52.4763 40.5029 52.4484C40.5533 52.4206 40.5957 52.3803 40.6258 52.3315H31.6739Z" fill="#E0A022"/>
<path d="M40.8418 49.3147H32.6036C32.3755 49.3147 32.1906 49.4976 32.1906 49.7232V50.5026C32.1906 50.7282 32.3755 50.9111 32.6036 50.9111H40.8418C41.0699 50.9111 41.2548 50.7282 41.2548 50.5026V49.7232C41.2548 49.4976 41.0699 49.3147 40.8418 49.3147Z" fill="#F1B633"/>
<path d="M40.9117 49.3147H39.3911V50.909H40.9181C41.009 50.909 41.0963 50.8732 41.1606 50.8096C41.225 50.746 41.2611 50.6596 41.2611 50.5696V49.652C41.2609 49.6071 41.2516 49.5626 41.2338 49.5213C41.216 49.4799 41.1902 49.4425 41.1577 49.4111C41.1252 49.3797 41.0867 49.3551 41.0445 49.3385C41.0022 49.322 40.9571 49.3139 40.9117 49.3147Z" fill="#FAC55D"/>
<path d="M37.9616 49.3147H33.6921V50.9111H37.9616V49.3147Z" fill="#FAC55D"/>
<path d="M41.1997 49.4697C41.1685 49.4223 41.1258 49.3833 41.0755 49.3562C41.0252 49.3292 40.969 49.3149 40.9117 49.3147H32.5337C32.4765 49.3149 32.4202 49.3292 32.3699 49.3562C32.3196 49.3833 32.2769 49.4223 32.2457 49.4697H41.1997Z" fill="#E0A022"/>
<path d="M32.2457 50.7519C32.2758 50.8006 32.3182 50.8409 32.3686 50.8688C32.4191 50.8967 32.4759 50.9113 32.5337 50.9111H40.9117C40.9692 50.9113 41.0258 50.8967 41.0759 50.8688C41.126 50.8409 41.168 50.8006 41.1976 50.7519H32.2457Z" fill="#E0A022"/>
<path d="M41.4581 47.735H33.2199C32.9918 47.735 32.8069 47.918 32.8069 48.1436V48.9229C32.8069 49.1485 32.9918 49.3315 33.2199 49.3315H41.4581C41.6862 49.3315 41.8711 49.1485 41.8711 48.9229V48.1436C41.8711 47.918 41.6862 47.735 41.4581 47.735Z" fill="#F1B633"/>
<path d="M41.528 47.7351H40.0032V49.3315H41.528C41.5731 49.3317 41.6179 49.3231 41.6596 49.3062C41.7014 49.2892 41.7393 49.2642 41.7712 49.2327C41.8031 49.2011 41.8284 49.1636 41.8455 49.1223C41.8627 49.081 41.8714 49.0367 41.8711 48.9921V48.0724C41.8711 48.0279 41.8622 47.9838 41.8449 47.9428C41.8277 47.9017 41.8023 47.8644 41.7705 47.8331C41.7386 47.8018 41.7007 47.7769 41.6591 47.7601C41.6175 47.7433 41.5729 47.7348 41.528 47.7351Z" fill="#FAC55D"/>
<path d="M38.58 47.735H34.3105V49.3315H38.58V47.735Z" fill="#FAC55D"/>
<path d="M41.816 47.8901C41.7848 47.8426 41.7421 47.8036 41.6918 47.7766C41.6415 47.7495 41.5852 47.7352 41.528 47.735H33.15C33.0927 47.7352 33.0364 47.7495 32.9862 47.7766C32.9359 47.8036 32.8932 47.8426 32.8619 47.8901H41.816Z" fill="#E0A022"/>
<path d="M32.8641 49.1722C32.8942 49.2206 32.9362 49.2605 32.9862 49.2884C33.0363 49.3162 33.0926 49.331 33.15 49.3315H41.528C41.5857 49.3312 41.6424 49.3165 41.6928 49.2886C41.7432 49.2608 41.7856 49.2207 41.816 49.1722H32.8641Z" fill="#E0A022"/>
<path d="M41.1955 46.1554H32.9573C32.7292 46.1554 32.5443 46.3383 32.5443 46.5639V47.3433C32.5443 47.5689 32.7292 47.7518 32.9573 47.7518H41.1955C41.4236 47.7518 41.6085 47.5689 41.6085 47.3433V46.5639C41.6085 46.3383 41.4236 46.1554 41.1955 46.1554Z" fill="#F1B633"/>
<path d="M41.2633 46.1554H39.7385V47.7518H41.2633C41.3543 47.7518 41.4415 47.7161 41.5059 47.6524C41.5702 47.5888 41.6064 47.5024 41.6064 47.4124V46.4927C41.6064 46.4482 41.5975 46.4042 41.5802 46.3631C41.5629 46.3221 41.5376 46.2848 41.5058 46.2535C41.4739 46.2221 41.436 46.1973 41.3944 46.1805C41.3528 46.1636 41.3082 46.1551 41.2633 46.1554Z" fill="#FAC55D"/>
<path d="M38.3153 46.1554H34.0458V47.7518H38.3153V46.1554Z" fill="#FAC55D"/>
<path d="M41.5513 46.3104C41.5208 46.2623 41.4782 46.2228 41.4278 46.1956C41.3774 46.1685 41.3207 46.1546 41.2633 46.1554H32.8853C32.8279 46.1552 32.7715 46.1693 32.7212 46.1964C32.6708 46.2235 32.6282 46.2627 32.5972 46.3104H41.5513Z" fill="#E0A022"/>
<path d="M32.5994 47.5926C32.6295 47.6409 32.6715 47.6809 32.7215 47.7087C32.7715 47.7366 32.8279 47.7514 32.8853 47.7518H41.2633C41.321 47.7517 41.3778 47.7371 41.4282 47.7092C41.4786 47.6814 41.521 47.6412 41.5513 47.5926H32.5994Z" fill="#E0A022"/>
<path d="M40.4882 44.5737H32.252C32.0239 44.5737 31.8391 44.7566 31.8391 44.9822V45.7615C31.8391 45.9872 32.0239 46.1701 32.252 46.1701H40.4882C40.7162 46.1701 40.9011 45.9872 40.9011 45.7615V44.9822C40.9011 44.7566 40.7162 44.5737 40.4882 44.5737Z" fill="#F1B633"/>
<path d="M40.558 44.5737H39.0332V46.1722H40.558C40.649 46.1722 40.7363 46.1364 40.8006 46.0728C40.865 46.0091 40.9011 45.9228 40.9011 45.8328V44.9131C40.9011 44.8231 40.865 44.7367 40.8006 44.6731C40.7363 44.6094 40.649 44.5737 40.558 44.5737Z" fill="#FAC55D"/>
<path d="M37.6101 44.5737H33.3406V46.1701H37.6101V44.5737Z" fill="#FAC55D"/>
<path d="M40.8461 44.7308C40.8153 44.6827 40.7728 44.6431 40.7225 44.6156C40.6721 44.5881 40.6156 44.5737 40.558 44.5737H32.1906C32.1331 44.5739 32.0766 44.5884 32.0263 44.6159C31.976 44.6433 31.9335 44.6828 31.9026 44.7308H40.8461Z" fill="#E0A022"/>
<path d="M31.8941 46.0129C31.9242 46.0613 31.9663 46.1012 32.0163 46.1291C32.0663 46.1569 32.1226 46.1717 32.18 46.1722H40.558C40.6158 46.1721 40.6726 46.1574 40.723 46.1296C40.7734 46.1017 40.8157 46.0616 40.8461 46.0129H31.8941Z" fill="#E0A022"/>
<path d="M41.1955 42.9374H32.9573C32.7292 42.9374 32.5443 43.1203 32.5443 43.346V44.1253C32.5443 44.3509 32.7292 44.5338 32.9573 44.5338H41.1955C41.4236 44.5338 41.6085 44.3509 41.6085 44.1253V43.346C41.6085 43.1203 41.4236 42.9374 41.1955 42.9374Z" fill="#F1B633"/>
<path d="M41.2633 42.9479H39.7385V44.5464H41.2633C41.3543 44.5464 41.4415 44.5107 41.5059 44.447C41.5702 44.3834 41.6064 44.2971 41.6064 44.207V43.2873C41.6064 43.1973 41.5702 43.111 41.5059 43.0473C41.4415 42.9837 41.3543 42.9479 41.2633 42.9479Z" fill="#FAC55D"/>
<path d="M38.3153 42.9374H34.0458V44.5338H38.3153V42.9374Z" fill="#FAC55D"/>
<path d="M41.5513 43.0946C41.5209 43.0462 41.4784 43.0064 41.428 42.9789C41.3776 42.9513 41.3209 42.9371 41.2633 42.9374H32.8853C32.8278 42.9377 32.7713 42.9522 32.721 42.9796C32.6706 43.0071 32.6281 43.0466 32.5972 43.0946H41.5513Z" fill="#E0A022"/>
<path d="M32.5994 44.3767C32.6295 44.4251 32.6715 44.465 32.7215 44.4929C32.7715 44.5207 32.8279 44.5355 32.8853 44.536H41.2633C41.321 44.5359 41.3778 44.5212 41.4282 44.4934C41.4786 44.4655 41.521 44.4254 41.5513 44.3767H32.5994Z" fill="#E0A022"/>
<path d="M40.4882 41.3578H32.252C32.0239 41.3578 31.8391 41.5407 31.8391 41.7663V42.5457C31.8391 42.7713 32.0239 42.9542 32.252 42.9542H40.4882C40.7162 42.9542 40.9011 42.7713 40.9011 42.5457V41.7663C40.9011 41.5407 40.7162 41.3578 40.4882 41.3578Z" fill="#F1B633"/>
<path d="M40.558 41.3578H39.0332V42.9479H40.558C40.649 42.9479 40.7363 42.9122 40.8006 42.8485C40.865 42.7849 40.9011 42.6986 40.9011 42.6085V41.6909C40.8994 41.602 40.8626 41.5173 40.7984 41.455C40.7342 41.3927 40.6479 41.3578 40.558 41.3578Z" fill="#FAC55D"/>
<path d="M37.6101 41.3578H33.3406V42.9542H37.6101V41.3578Z" fill="#FAC55D"/>
<path d="M40.8461 41.5149C40.8153 41.4669 40.7728 41.4272 40.7225 41.3998C40.6721 41.3723 40.6156 41.3579 40.558 41.3578H32.1906C32.1331 41.358 32.0766 41.3726 32.0263 41.4C31.976 41.4275 31.9335 41.467 31.9026 41.5149H40.8461Z" fill="#E0A022"/>
<path d="M31.8941 42.7971C31.9262 42.8454 31.9703 42.8846 32.0223 42.9111C32.0742 42.9375 32.1322 42.9502 32.1906 42.9479H40.5686C40.6264 42.9479 40.6831 42.9332 40.7335 42.9053C40.784 42.8775 40.8263 42.8373 40.8566 42.7887L31.8941 42.7971Z" fill="#E0A022"/>
<path d="M60.7026 57.215H52.4664C52.2384 57.215 52.0535 57.3979 52.0535 57.6236V58.4029C52.0535 58.6285 52.2384 58.8114 52.4664 58.8114H60.7026C60.9307 58.8114 61.1155 58.6285 61.1155 58.4029V57.6236C61.1155 57.3979 60.9307 57.215 60.7026 57.215Z" fill="#F1B633"/>
<path d="M60.781 57.215H59.254V58.8114H60.781C60.8716 58.8109 60.9583 58.7749 61.0222 58.7113C61.0861 58.6477 61.1219 58.5617 61.1219 58.472V57.5523C61.1219 57.4629 61.086 57.3771 61.0221 57.3138C60.9581 57.2506 60.8714 57.215 60.781 57.215Z" fill="#FAC55D"/>
<path d="M57.8245 57.215H53.555V58.8114H57.8245V57.215Z" fill="#FAC55D"/>
<path d="M61.0626 57.3701C61.0316 57.3224 60.989 57.2831 60.9387 57.256C60.8883 57.2289 60.8319 57.2148 60.7746 57.215H52.3965C52.3391 57.2142 52.2825 57.2281 52.232 57.2552C52.1816 57.2824 52.139 57.3219 52.1085 57.3701H61.0626Z" fill="#E0A022"/>
<path d="M52.1085 58.6606C52.1388 58.7092 52.1812 58.7493 52.2316 58.7772C52.282 58.8051 52.3388 58.8197 52.3965 58.8198H60.7809C60.8383 58.8194 60.8946 58.8046 60.9447 58.7767C60.9947 58.7489 61.0367 58.7089 61.0668 58.6606H52.1085Z" fill="#E0A022"/>
<path d="M60.3066 55.6333H52.0704C51.8424 55.6333 51.6575 55.8162 51.6575 56.0418V56.8212C51.6575 57.0468 51.8424 57.2297 52.0704 57.2297H60.3066C60.5347 57.2297 60.7195 57.0468 60.7195 56.8212V56.0418C60.7195 55.8162 60.5347 55.6333 60.3066 55.6333Z" fill="#F1B633"/>
<path d="M60.3764 55.6333H58.8516V57.2318H60.3764C60.4674 57.2318 60.5547 57.196 60.619 57.1324C60.6834 57.0687 60.7195 56.9824 60.7195 56.8924V55.9727C60.7195 55.8827 60.6834 55.7963 60.619 55.7327C60.5547 55.669 60.4674 55.6333 60.3764 55.6333Z" fill="#FAC55D"/>
<path d="M57.4285 55.6333H53.159V57.2297H57.4285V55.6333Z" fill="#FAC55D"/>
<path d="M60.6645 55.7904C60.6336 55.7424 60.591 55.7029 60.5407 55.6755C60.4904 55.648 60.4339 55.6335 60.3764 55.6333H51.9984C51.9409 55.6335 51.8844 55.648 51.8341 55.6755C51.7838 55.7029 51.7413 55.7424 51.7104 55.7904H60.6645Z" fill="#E0A022"/>
<path d="M51.7125 57.0726C51.7427 57.1209 51.7847 57.1608 51.8347 57.1887C51.8847 57.2165 51.941 57.2314 51.9984 57.2318H60.3765C60.4342 57.2315 60.4909 57.2168 60.5412 57.1889C60.5916 57.1611 60.634 57.1211 60.6645 57.0726H51.7125Z" fill="#E0A022"/>
<path d="M60.6581 54.0536H52.422C52.1939 54.0536 52.009 54.2366 52.009 54.4622V55.2415C52.009 55.4671 52.1939 55.6501 52.422 55.6501H60.6581C60.8862 55.6501 61.0711 55.4671 61.0711 55.2415V54.4622C61.0711 54.2366 60.8862 54.0536 60.6581 54.0536Z" fill="#F1B633"/>
<path d="M60.7301 54.0515H59.2032V55.65H60.7301C60.8209 55.6495 60.9079 55.6136 60.9721 55.55C61.0363 55.4865 61.0727 55.4005 61.0732 55.3107V54.3909C61.0727 54.3011 61.0363 54.2151 60.9721 54.1516C60.9079 54.088 60.8209 54.0521 60.7301 54.0515Z" fill="#FAC55D"/>
<path d="M57.78 54.0536H53.5106V55.6501H57.78V54.0536Z" fill="#FAC55D"/>
<path d="M61.0182 54.2108C60.9873 54.1628 60.9447 54.1233 60.8944 54.0958C60.8441 54.0684 60.7876 54.0539 60.7301 54.0536H52.3521C52.2946 54.0539 52.2381 54.0684 52.1878 54.0958C52.1375 54.1233 52.095 54.1628 52.0641 54.2108H61.0182Z" fill="#E0A022"/>
<path d="M52.0641 55.4929C52.0946 55.5414 52.137 55.5814 52.1873 55.6093C52.2377 55.6371 52.2944 55.6519 52.3521 55.6521H60.7301C60.7875 55.6517 60.8439 55.6369 60.8939 55.609C60.9439 55.5812 60.9859 55.5412 61.016 55.4929H52.0641Z" fill="#E0A022"/>
<path d="M61.0541 52.474H52.818C52.5899 52.474 52.405 52.6569 52.405 52.8825V53.6619C52.405 53.8875 52.5899 54.0704 52.818 54.0704H61.0541C61.2822 54.0704 61.4671 53.8875 61.4671 53.6619V52.8825C61.4671 52.6569 61.2822 52.474 61.0541 52.474Z" fill="#F1B633"/>
<path d="M61.1262 52.474H59.5992V54.0704H61.1262C61.2168 54.0704 61.3037 54.0349 61.368 53.9717C61.4323 53.9085 61.4687 53.8228 61.4693 53.7331V52.8134C61.4687 52.7235 61.4324 52.6375 61.3682 52.574C61.3039 52.5105 61.217 52.4745 61.1262 52.474Z" fill="#FAC55D"/>
<path d="M58.1782 52.474H53.9087V54.0704H58.1782V52.474Z" fill="#FAC55D"/>
<path d="M61.4163 52.6311C61.3854 52.5832 61.3429 52.5436 61.2925 52.5162C61.2422 52.4887 61.1857 52.4742 61.1283 52.474H52.7481C52.6906 52.4742 52.6341 52.4887 52.5838 52.5162C52.5335 52.5436 52.4909 52.5832 52.4601 52.6311H61.4163Z" fill="#E0A022"/>
<path d="M52.4601 53.9133C52.4909 53.9612 52.5335 54.0008 52.5838 54.0282C52.6341 54.0557 52.6906 54.0702 52.7481 54.0704H61.1261C61.1836 54.0704 61.2402 54.0559 61.2906 54.0285C61.3409 54.001 61.3834 53.9614 61.4142 53.9133H52.4601Z" fill="#E0A022"/>
<path d="M60.2621 50.8943H52.0259C51.7979 50.8943 51.613 51.0773 51.613 51.3029V52.0822C51.613 52.3079 51.7979 52.4908 52.0259 52.4908H60.2621C60.4902 52.4908 60.6751 52.3079 60.6751 52.0822V51.3029C60.6751 51.0773 60.4902 50.8943 60.2621 50.8943Z" fill="#F1B633"/>
<path d="M60.3319 50.8944H58.8071V52.4908H60.3319C60.3769 52.491 60.4215 52.4825 60.4631 52.4657C60.5047 52.4489 60.5425 52.4241 60.5744 52.3927C60.6063 52.3614 60.6316 52.3241 60.6489 52.283C60.6661 52.242 60.675 52.1979 60.675 52.1535V51.2338C60.6753 51.1891 60.6666 51.1448 60.6495 51.1035C60.6323 51.0622 60.6071 51.0247 60.5752 50.9931C60.5433 50.9616 60.5053 50.9366 60.4636 50.9196C60.4218 50.9027 60.3771 50.8941 60.3319 50.8944Z" fill="#FAC55D"/>
<path d="M57.384 50.8943H53.1145V52.4908H57.384V50.8943Z" fill="#FAC55D"/>
<path d="M60.62 51.0515C60.5896 51.0031 60.5472 50.9633 60.4967 50.9358C60.4463 50.9083 60.3896 50.894 60.332 50.8944H51.954C51.8965 50.8946 51.84 50.9091 51.7897 50.9365C51.7394 50.964 51.6968 51.0035 51.666 51.0515H60.62Z" fill="#E0A022"/>
<path d="M51.6744 52.3315C51.704 52.3803 51.746 52.4206 51.7961 52.4485C51.8462 52.4764 51.9028 52.491 51.9603 52.4908H60.3383C60.3961 52.4911 60.4531 52.4766 60.5035 52.4487C60.554 52.4208 60.5963 52.3804 60.6263 52.3315H51.6744Z" fill="#E0A022"/>
<path d="M60.8339 49.3147H52.5978C52.3697 49.3147 52.1848 49.4976 52.1848 49.7232V50.5026C52.1848 50.7282 52.3697 50.9111 52.5978 50.9111H60.8339C61.062 50.9111 61.2469 50.7282 61.2469 50.5026V49.7232C61.2469 49.4976 61.062 49.3147 60.8339 49.3147Z" fill="#F1B633"/>
<path d="M60.9059 49.3147H59.379V50.909H60.9059C60.9969 50.909 61.0842 50.8733 61.1485 50.8096C61.2128 50.746 61.249 50.6596 61.249 50.5696V49.652C61.2484 49.5623 61.212 49.4766 61.1478 49.4134C61.0835 49.3502 60.9965 49.3147 60.9059 49.3147Z" fill="#FAC55D"/>
<path d="M57.9558 49.3147H53.6863V50.9111H57.9558V49.3147Z" fill="#FAC55D"/>
<path d="M61.2045 49.4697C61.1733 49.4223 61.1306 49.3833 61.0803 49.3562C61.03 49.3292 60.9738 49.3149 60.9165 49.3147H52.5215C52.4643 49.3149 52.408 49.3292 52.3577 49.3562C52.3075 49.3833 52.2648 49.4223 52.2335 49.4697H61.2045Z" fill="#E0A022"/>
<path d="M52.2399 50.7519C52.2699 50.7992 52.3113 50.8384 52.3605 50.8658C52.4097 50.8933 52.4651 50.9081 52.5215 50.909H60.8996C60.9573 50.9091 61.0142 50.8946 61.0646 50.8667C61.1151 50.8388 61.1574 50.7985 61.1876 50.7498L52.2399 50.7519Z" fill="#E0A022"/>
<path opacity="0.32" d="M66.3974 52.3127C66.957 52.795 67.3595 53.4307 67.5539 54.1393C67.7484 54.8479 67.726 55.5976 67.4898 56.2937C67.2535 56.9897 66.8138 57.6008 66.2264 58.0497C65.6391 58.4985 64.9303 58.765 64.1898 58.8154C63.4494 58.8658 62.7104 58.6979 62.0664 58.3328C61.4224 57.9677 60.9023 57.422 60.5719 56.7645C60.2415 56.107 60.1155 55.3674 60.2101 54.6391C60.3046 53.9108 60.6153 53.2266 61.1029 52.673C61.7567 51.9307 62.6818 51.4758 63.6747 51.4082C64.6676 51.3406 65.647 51.666 66.3974 52.3127Z" fill="#998329"/>
<path d="M65.9844 52.3609C66.5551 52.8527 66.9656 53.501 67.1639 54.2237C67.3621 54.9463 67.3393 55.7109 67.0983 56.4207C66.8573 57.1306 66.4089 57.7537 65.8098 58.2114C65.2107 58.6692 64.4879 58.9408 63.7327 58.9921C62.9776 59.0434 62.224 58.872 61.5673 58.4996C60.9106 58.1272 60.3803 57.5705 60.0435 56.8999C59.7067 56.2293 59.5784 55.4749 59.675 54.7323C59.7716 53.9896 60.0887 53.2919 60.5861 52.7275C61.2529 51.9709 62.1962 51.5072 63.2085 51.4385C64.2208 51.3697 65.2193 51.7015 65.9844 52.3609Z" fill="#F2CD30"/>
<path d="M65.4401 52.9873C65.8852 53.3711 66.2053 53.8769 66.3599 54.4407C66.5144 55.0045 66.4965 55.601 66.3085 56.1547C66.1204 56.7085 65.7706 57.1946 65.3033 57.5517C64.8359 57.9088 64.2721 58.1208 63.683 58.1609C63.0938 58.2011 62.5059 58.0675 61.9935 57.7771C61.4811 57.4867 61.0673 57.0526 60.8043 56.5296C60.5413 56.0066 60.4409 55.4181 60.5159 54.8387C60.591 54.2593 60.8379 53.7149 61.2257 53.2743C61.7462 52.6836 62.4826 52.3216 63.2728 52.2678C64.0631 52.214 64.8426 52.4728 65.4401 52.9873Z" fill="#EAA00E"/>
<path d="M65.3321 53.377C65.7498 53.7376 66.0501 54.2127 66.195 54.7421C66.3399 55.2715 66.3228 55.8316 66.146 56.3514C65.9692 56.8713 65.6405 57.3276 65.2016 57.6627C64.7627 57.9978 64.2332 58.1967 63.68 58.2342C63.1268 58.2716 62.5749 58.146 62.0939 57.8733C61.6129 57.6005 61.2244 57.1927 60.9776 56.7016C60.7308 56.2104 60.6367 55.6579 60.7072 55.1139C60.7778 54.5699 61.0098 54.0587 61.3739 53.6451C61.6159 53.3702 61.9103 53.1453 62.2403 52.983C62.5702 52.8207 62.9292 52.7244 63.2968 52.6995C63.6644 52.6746 64.0334 52.7216 64.3826 52.8379C64.7319 52.9541 65.0545 53.1373 65.3321 53.377Z" fill="#F1B633"/>
<path d="M64.6396 54.1228V54.083C64.639 54.0417 64.622 54.0022 64.5923 53.9732C64.5626 53.9442 64.5225 53.9279 64.4807 53.9279H62.4476C62.4188 53.9279 62.3911 53.9391 62.3705 53.9591C62.3499 53.9791 62.3381 54.0063 62.3375 54.0348V54.3742C62.3375 54.4086 62.3514 54.4417 62.376 54.466C62.4006 54.4904 62.434 54.5041 62.4688 54.5041H62.4964C62.6762 54.4918 62.856 54.5272 63.0173 54.6067C63.0811 54.6456 63.1296 54.7047 63.155 54.7743H62.4964C62.4546 54.7743 62.4145 54.7906 62.3848 54.8196C62.3551 54.8486 62.3381 54.8881 62.3375 54.9294V54.9922C62.3381 55.0337 62.355 55.0734 62.3847 55.1027C62.4143 55.1321 62.4544 55.1488 62.4964 55.1493H63.1486C63.1224 55.2139 63.0775 55.2693 63.0195 55.3086C62.8651 55.3951 62.6882 55.4345 62.5112 55.4217H62.4964C62.4544 55.4222 62.4143 55.439 62.3847 55.4683C62.355 55.4977 62.3381 55.5373 62.3375 55.5788V55.8512C62.3381 55.8927 62.355 55.9323 62.3847 55.9617C62.4143 55.991 62.4544 56.0078 62.4964 56.0083H62.6637L63.4367 57.2381C63.4509 57.2604 63.4706 57.2788 63.4939 57.2916C63.5172 57.3045 63.5434 57.3113 63.5701 57.3114H63.9936C64.0221 57.3111 64.05 57.3032 64.0743 57.2886C64.0987 57.274 64.1186 57.2532 64.132 57.2284C64.1455 57.2035 64.1519 57.1756 64.1506 57.1474C64.1494 57.1193 64.1405 57.092 64.125 57.0684C63.9386 56.7981 63.659 56.3854 63.2778 55.8323C63.4664 55.7555 63.6299 55.6287 63.7501 55.4657C63.8192 55.371 63.8682 55.2633 63.8941 55.1493H64.4786C64.5206 55.1488 64.5607 55.1321 64.5903 55.1027C64.62 55.0734 64.6369 55.0337 64.6375 54.9922V54.9294C64.6369 54.8881 64.6199 54.8486 64.5902 54.8196C64.5605 54.7906 64.5204 54.7743 64.4786 54.7743H63.9089C63.8923 54.5917 63.8182 54.4188 63.6972 54.2799H64.4744C64.4957 54.2805 64.5169 54.2768 64.5368 54.2692C64.5567 54.2616 64.5748 54.2501 64.5902 54.2355C64.6056 54.2209 64.6178 54.2034 64.6263 54.1841C64.6348 54.1647 64.6393 54.1439 64.6396 54.1228Z" fill="#FFECCC"/>
</g>
<defs>
<clipPath id="clip0_201_314">
<rect width="80" height="59" fill="white"/>
</clipPath>
</defs>
</svg>
