<svg width="22" height="20" viewBox="0 0 22 20" fill="none" xmlns="http://www.w3.org/2000/svg">
<path fill-rule="evenodd" clip-rule="evenodd" d="M8.178 0.0525692C7.92724 0.135688 7.73061 0.271607 7.5284 0.501592C7.22058 0.851728 7.18135 0.977375 7.02657 2.10793C6.96736 2.54033 6.90867 2.93979 6.89616 2.99552L6.87339 3.09689H4.28239C2.02482 3.09689 1.6614 3.10621 1.45807 3.16951C0.700963 3.40499 0.162138 4.02214 0.041998 4.79139C-0.0144626 5.15283 -0.0137751 17.9394 0.0427285 18.3016C0.163083 19.0732 0.739119 19.7185 1.49077 19.9238C1.86287 20.0254 20.1371 20.0254 20.5092 19.9238C21.2609 19.7185 21.8369 19.0732 21.9573 18.3016C22.0138 17.9394 22.0145 5.15283 21.958 4.79139C21.8379 4.02214 21.299 3.40499 20.5419 3.16951C20.3386 3.10621 19.9752 3.09689 17.7176 3.09689H15.1266L15.1038 2.99552C15.0913 2.93979 15.0326 2.54033 14.9734 2.10793C14.848 1.19123 14.8097 1.0213 14.6733 0.77415C14.5393 0.531281 14.2206 0.228538 13.9724 0.108252C13.7739 0.0120684 13.7391 0.0108069 11.0645 0.00197696C8.92221 -0.00505099 8.32001 0.00549099 8.178 0.0525692ZM13.5295 1.40031C13.5667 1.4473 13.793 2.86924 13.793 3.05603C13.793 3.08004 12.6427 3.09689 11 3.09689C9.35727 3.09689 8.20705 3.08004 8.20705 3.05603C8.20705 2.86924 8.43332 1.4473 8.47053 1.40031C8.5413 1.31089 13.4587 1.31089 13.5295 1.40031ZM20.2984 4.51122C20.3772 4.54577 20.4975 4.65056 20.5656 4.74417L20.6894 4.91433L20.7019 6.80895C20.7097 7.97928 20.6972 8.82453 20.6692 9.02C20.5788 9.65049 20.181 10.2621 19.6611 10.5697C19.1876 10.8498 19.2392 10.8456 16.2773 10.8456H13.5781L13.5779 10.2487C13.5778 9.57886 13.5334 9.43889 13.267 9.26864C13.1322 9.18246 13.0467 9.17908 11 9.17908C8.95328 9.17908 8.86777 9.18246 8.73302 9.26864C8.46662 9.43889 8.42223 9.57886 8.42206 10.2487L8.42189 10.8456H5.72269C2.76079 10.8456 2.81239 10.8498 2.33892 10.5697C1.81905 10.2621 1.4212 9.65049 1.33084 9.02C1.30282 8.82453 1.29032 7.97928 1.29805 6.80895L1.3106 4.91433L1.43431 4.74431C1.50237 4.65083 1.61838 4.54681 1.69212 4.51315C1.89519 4.42048 20.087 4.41859 20.2984 4.51122ZM12.2885 11.5101L12.2878 12.49L11.6439 12.8419L11 13.1937L10.3561 12.8419L9.71219 12.49L9.71155 11.5101L9.71095 10.5303H11H12.2891L12.2885 11.5101ZM1.94525 11.8836C2.0925 11.9558 2.36763 12.0598 2.55669 12.1146C2.89176 12.2118 2.97026 12.2147 5.66116 12.2315L8.42189 12.2487L8.42206 12.6621C8.42219 12.9934 8.43899 13.1045 8.50641 13.2205C8.61134 13.4009 8.69517 13.4554 9.86447 14.1039C10.6551 14.5424 10.844 14.6299 11 14.6299C11.156 14.6299 11.3449 14.5424 12.1355 14.1039C13.3048 13.4554 13.3887 13.4009 13.4936 13.2205C13.561 13.1045 13.5778 12.9934 13.5779 12.6621L13.5781 12.2487L16.3388 12.2315C19.0297 12.2147 19.1082 12.2118 19.4433 12.1146C19.8398 11.9996 20.2381 11.8131 20.5174 11.6116L20.7125 11.4709L20.701 14.8266C20.6896 18.1361 20.6882 18.1841 20.6008 18.3068C20.5521 18.3752 20.4588 18.473 20.3936 18.524L20.2749 18.6169H11H1.72512L1.60644 18.524C1.54117 18.473 1.44793 18.3752 1.3992 18.3068C1.3118 18.1841 1.31043 18.1361 1.29904 14.8266L1.28748 11.4709L1.48256 11.6116C1.58981 11.689 1.79804 11.8114 1.94525 11.8836Z" fill="#B3B3B3"/>
</svg>
