<svg width="35" height="35" viewBox="0 0 35 35" fill="none" xmlns="http://www.w3.org/2000/svg">
<path fill-rule="evenodd" clip-rule="evenodd" d="M23.247 0.098033C22.1569 0.328505 21.0626 0.885432 20.3465 1.57431C20.1406 1.77234 19.4482 2.64747 18.8078 3.51914C18.1674 4.39082 17.4537 5.30784 17.2218 5.55707C16.7548 6.05878 16.3096 6.7545 16.1104 7.29372C16.0388 7.48766 15.9732 7.65607 15.9647 7.66799C15.9078 7.74747 15.0984 6.76754 14.0247 5.31905C12.5884 3.38141 12.4278 3.19615 11.8252 2.78203C10.8739 2.12841 9.87282 1.76924 8.83776 1.71028C8.00552 1.66289 2.89169 2.20035 2.63494 2.36213C2.4616 2.47137 2.35942 2.73894 2.41422 2.94C2.48532 3.20073 5.57472 7.30952 6.00598 7.71686C6.54989 8.23063 7.08733 8.55151 7.78931 8.78163C8.64236 9.06133 9.06794 9.0583 12.1843 8.75018C13.7448 8.59587 15.0471 8.48494 15.0782 8.50356C15.2791 8.62394 15.6883 9.70162 15.7573 10.2923L15.8064 10.7141H12.4826H9.15862L8.98003 10.8873C8.80283 11.0589 8.80137 11.0713 8.80137 12.4067C8.80137 13.7421 8.80283 13.7545 8.98003 13.9261C9.12667 14.0683 9.23074 14.0993 9.56223 14.0993H9.96576V14.6635V15.2277H9.56223C9.23074 15.2277 9.12667 15.2586 8.98003 15.4008C8.80283 15.5724 8.80137 15.5848 8.80137 16.9202C8.80137 18.2557 8.80283 18.268 8.98003 18.4397C9.12667 18.5818 9.23074 18.6128 9.56223 18.6128H9.96576V19.177V19.7412H9.56223C9.23074 19.7412 9.12667 19.7721 8.98003 19.9143C8.80283 20.086 8.80137 20.0983 8.80137 21.4338C8.80137 22.7692 8.80283 22.7815 8.98003 22.9532C9.12667 23.0954 9.23074 23.1263 9.56223 23.1263H9.96576V23.6905V24.2547H9.56223C9.23074 24.2547 9.12667 24.2857 8.98003 24.4278C8.80283 24.5995 8.80137 24.6118 8.80137 25.9488C8.80137 27.2003 8.79228 27.2939 8.67402 27.258C8.60401 27.2366 7.22036 26.8809 5.59932 26.4675C2.26169 25.6162 1.99271 25.5801 1.2994 25.8889C0.826512 26.0995 0.4264 26.4622 0.201966 26.8836C-0.0155558 27.2921 -0.069554 28.1977 0.100009 28.5928C0.286529 29.0271 0.577625 29.3962 0.901469 29.609C1.06375 29.7156 4.3348 30.9722 8.17042 32.4014L15.1444 35L20.1417 33.8613L25.1391 32.7226L26.631 32.9301C27.4515 33.0442 28.2293 33.1555 28.3594 33.1776C28.5953 33.2175 28.5959 33.2186 28.5959 33.6408C28.5959 33.996 28.6246 34.0917 28.7746 34.237L28.9531 34.4101H31.7979H34.6428L34.8213 34.237L35 34.0639V28.7682V23.4725L34.8213 23.2995L34.6428 23.1263H31.7979H28.9531L28.7746 23.2995C28.6278 23.4416 28.5959 23.5424 28.5959 23.8636V24.2547L27.4133 24.2544C26.7629 24.2541 25.6249 24.2224 24.8844 24.1838C24.1439 24.1451 22.6375 24.0663 21.5368 24.0086C20.4361 23.9509 19.4782 23.9034 19.4082 23.9029C19.3024 23.9022 19.2808 23.8363 19.2808 23.5142V23.1263L19.8084 23.1251C22.867 23.118 25.123 20.3538 24.377 17.5274C24.16 16.7049 23.7745 16.0538 23.1369 15.4326C22.2457 14.5644 21.0941 14.1035 19.8084 14.1005L19.2808 14.0993V13.7082C19.2808 13.1608 19.0848 12.9709 18.52 12.9709H18.1164V12.0156C18.1164 11.0954 18.1099 11.054 17.9378 10.8873C17.7903 10.7442 17.6876 10.7141 17.3475 10.7141H16.9358L16.9699 9.46233C17.0063 8.12456 17.0879 7.75382 17.4931 7.08377L17.6695 6.79202L20.3855 7.0581C21.8793 7.20444 23.332 7.32525 23.6138 7.32659C24.6585 7.33152 25.8445 6.85873 26.657 6.11365C27.1913 5.62372 30.3425 1.41126 30.3425 1.18706C30.3425 0.959059 30.1827 0.711026 29.9873 0.635989C29.746 0.54325 24.6414 -0.00740012 24.0926 7.54033e-05C23.8677 0.00317845 23.4872 0.0472558 23.247 0.098033ZM26.4854 1.34433C27.6662 1.46817 28.6447 1.57889 28.6599 1.59032C28.675 1.60181 28.1308 2.36615 27.4504 3.28881C26.2524 4.91368 25.7817 5.44106 25.2483 5.75609C24.8384 5.99813 24.121 6.2006 23.6731 6.2006C23.295 6.2006 18.9764 5.80306 18.8095 5.75292C18.6644 5.70926 19.6988 5.27928 20.1905 5.17878C20.4712 5.12138 21.0853 5.07412 21.5583 5.07342C22.3718 5.07229 22.426 5.06319 22.5953 4.89908C22.8861 4.61734 22.8126 4.22177 22.4331 4.02586C22.2495 3.93115 20.819 3.92127 20.2633 4.01098C20.0631 4.04321 19.8906 4.0619 19.8798 4.05238C19.8259 4.00491 21.065 2.44253 21.3348 2.21763C22.0363 1.63291 23.2071 1.17 24.0839 1.13064C24.224 1.12437 25.3047 1.22056 26.4854 1.34433ZM9.42286 2.92195C10.0537 3.07682 10.9836 3.54065 11.4125 3.91436C11.7449 4.204 12.9218 5.68719 12.8635 5.74304C12.8507 5.75524 12.693 5.73761 12.5128 5.7039C12.3327 5.67012 11.7663 5.64121 11.2542 5.63951C10.3605 5.63655 10.3158 5.64339 10.1444 5.80955C10.0318 5.91865 9.96576 6.06322 9.96576 6.2006C9.96576 6.33798 10.0318 6.48256 10.1444 6.59166C10.314 6.75605 10.3667 6.76479 11.1862 6.76479C11.661 6.76479 12.2415 6.79921 12.4761 6.84124C12.9039 6.91783 13.8956 7.30557 13.8956 7.39619C13.8956 7.42278 12.7983 7.54979 11.4572 7.6785C9.37672 7.87815 8.95769 7.90058 8.60241 7.83147C8.01432 7.71701 7.37209 7.40529 6.93465 7.02213C6.60382 6.73228 4.0178 3.33543 4.08249 3.27563C4.13773 3.22471 7.92947 2.83147 8.44041 2.82378C8.74221 2.8192 9.18431 2.86334 9.42286 2.92195ZM16.9521 12.4067V12.9709H13.4589H9.96576V12.4067V11.8425H13.4589H16.9521V12.4067ZM18.1164 14.267C18.1164 14.3868 18.0542 14.4598 17.8987 14.5222C17.779 14.5702 17.4761 14.7483 17.2255 14.9178L16.7701 15.2261L13.9501 15.2269L11.1301 15.2277V14.6635V14.0993H14.6233H18.1164V14.267ZM20.6969 15.3356C21.9521 15.6525 22.9189 16.5924 23.2476 17.8154C23.7189 19.5691 22.5606 21.4195 20.6969 21.89C18.8758 22.3496 16.9681 21.2323 16.4813 19.4209C15.8332 17.0097 18.2087 14.7076 20.6969 15.3356ZM15.7623 16.4442C15.7397 16.4927 15.6317 16.7465 15.5222 17.0084L15.3231 17.4844H12.6444H9.96576V16.9202V16.356H12.8845C15.1928 16.356 15.7947 16.3744 15.7623 16.4442ZM19.4595 16.5292C19.3612 16.6244 19.2808 16.7799 19.2808 16.8747C19.2808 16.977 19.1795 17.1453 19.0319 17.2884C18.4783 17.8248 18.6482 18.7152 19.3698 19.0598L19.6083 19.1737L19.3321 19.1754C18.9798 19.1774 18.6986 19.4285 18.6986 19.7412C18.6986 19.9765 18.9724 20.3054 19.1684 20.3054C19.2302 20.3054 19.2808 20.3544 19.2808 20.4143C19.2808 20.6043 19.6202 20.8696 19.863 20.8696C20.1379 20.8696 20.4452 20.5958 20.4452 20.3509C20.4452 20.2486 20.5465 20.0803 20.6942 19.9372C21.2471 19.4013 21.0589 18.4514 20.3397 18.1478L20.1177 18.0541L20.3939 18.0514C20.7463 18.0478 21.0274 17.7963 21.0274 17.4844C21.0274 17.2491 20.7536 16.9202 20.5576 16.9202C20.4958 16.9202 20.4452 16.8712 20.4452 16.8113C20.4452 16.6213 20.1059 16.356 19.863 16.356C19.7213 16.356 19.5721 16.42 19.4595 16.5292ZM15.2337 19.0703C15.2604 19.322 15.3011 19.5759 15.3244 19.6345C15.3614 19.7282 15.1092 19.7412 13.2484 19.7412H11.1301V19.177V18.6128H13.1578H15.1854L15.2337 19.0703ZM15.9398 21.0282C15.9863 21.1155 16.1862 21.3694 16.3841 21.5924L16.7437 21.9979H13.3548H9.96576V21.4338V20.8696H12.9106H15.8554L15.9398 21.0282ZM18.1164 23.4723V23.8184L16.8562 23.8073L15.596 23.7963L15.214 24.0255L14.8319 24.2547H12.9811H11.1301V23.6905V23.1263H14.6233H18.1164V23.4723ZM33.8356 28.7682V33.2818H31.7979H29.7603V28.7682V24.2547H31.7979H33.8356V28.7682ZM21.4277 25.1364C24.0293 25.272 26.7065 25.383 27.3769 25.383L28.5959 25.3831V28.7343V32.0855L28.4322 32.0503C28.3421 32.0308 27.5469 31.9166 26.665 31.7964L25.0615 31.5778L20.2245 32.6815C17.5641 33.2886 15.3383 33.7886 15.2783 33.7928C15.1086 33.8044 1.65039 28.7707 1.49836 28.6388C1.13908 28.3269 1.05109 27.7083 1.30784 27.3001C1.49698 26.9994 2.01819 26.7644 2.34625 26.8316C2.47441 26.858 5.26703 27.5583 8.55227 28.388C11.8374 29.2178 14.5643 29.8966 14.612 29.8966C14.6597 29.8966 15.6887 29.512 16.8988 29.0419L19.0989 28.1873L20.336 28.4794C21.0165 28.6399 21.632 28.7706 21.7038 28.7698C21.9109 28.7673 22.1918 28.448 22.1918 28.215C22.1918 27.7671 22.1673 27.7578 18.88 26.9637C15.4542 26.1361 15.4966 26.1537 15.4966 25.5617C15.4966 25.3053 15.5335 25.2244 15.7205 25.072C15.8983 24.927 16.0219 24.8894 16.3209 24.8896C16.5279 24.8897 18.826 25.0008 21.4277 25.1364ZM14.3211 25.7045C14.328 25.8812 14.3808 26.1351 14.4384 26.2687L14.5431 26.5115H12.2544H9.96576V25.9473V25.3831H12.1372H14.3086L14.3211 25.7045ZM17.0538 27.6987C17.0976 27.7674 14.7275 28.6983 14.5133 28.6965C14.4337 28.6958 13.4516 28.4601 12.3309 28.1727L10.2932 27.6501L13.6547 27.645C15.5036 27.6422 17.0331 27.6664 17.0538 27.6987Z" fill="#474646"/>
</svg>
