<svg width="14" height="16" viewBox="0 0 14 16" fill="none" xmlns="http://www.w3.org/2000/svg">
<path d="M0.770101 0H13.0917C13.296 0 13.4918 0.0811353 13.6363 0.225557C13.7807 0.369979 13.8618 0.565857 13.8618 0.770101V15.6146C13.8619 15.6788 13.8459 15.7421 13.8152 15.7985C13.7846 15.855 13.7403 15.9029 13.6864 15.9379C13.6325 15.9729 13.5707 15.9938 13.5067 15.9988C13.4426 16.0038 13.3783 15.9927 13.3197 15.9665L6.9309 13.1148L0.542151 15.9657C0.483548 15.9919 0.419329 16.003 0.355332 15.9981C0.291336 15.9931 0.229593 15.9723 0.175719 15.9374C0.121845 15.9025 0.0775493 15.8547 0.0468604 15.7983C0.0161715 15.7419 6.30141e-05 15.6787 0 15.6146V0.770101C0 0.565857 0.0811353 0.369979 0.225557 0.225557C0.369979 0.0811353 0.565857 0 0.770101 0ZM12.3216 13.8349V1.5402H1.5402V13.8349L6.9309 11.4291L12.3216 13.8349ZM6.9309 8.85616L4.66758 10.046L5.09961 7.52619L3.26908 5.7411L5.79963 5.37299L6.9309 3.0804L8.06295 5.37299L10.5927 5.7411L8.7622 7.52619L9.19346 10.046L6.9309 8.85616Z" fill="#FFD24C"/>
</svg>
