<svg width="38" height="49" viewBox="0 0 38 49" fill="none" xmlns="http://www.w3.org/2000/svg">
<path opacity="0.35" d="M0 19.2308L3.22145 11.7027H15.373C15.2192 11.1684 14.954 10.6421 14.5695 10.1278C14.1851 9.61339 13.7123 9.1708 13.151 8.79201C12.5898 8.4172 11.9632 8.10619 11.2712 7.87892C10.5793 7.63968 9.84117 7.52405 9.07233 7.52405H0L3.22145 0H38L34.7786 7.52803H26.379C26.7096 7.79119 27.0171 8.09822 27.3016 8.45309C27.586 8.796 27.8398 9.15087 28.0589 9.53764C28.2665 9.91244 28.4548 10.2912 28.6086 10.666C28.7508 11.0408 28.8508 11.3957 28.8931 11.7027H37.9962L34.7747 19.2308H28.1934C27.7091 20.5067 26.994 21.7189 26.0368 22.8592C25.0796 24.0116 23.9686 25.0243 22.7039 25.9374C21.4276 26.8505 20.0552 27.6041 18.5675 28.2301C17.0837 28.8442 15.5767 29.2549 14.0467 29.4861L32.3221 49H17.8794L1.58381 30.4511V23.5411H8.79555C9.48751 23.5411 10.1718 23.4254 10.8407 23.1862C11.5211 22.9469 12.1477 22.628 12.709 22.2292C13.2817 21.8425 13.7738 21.372 14.1928 20.8616C14.6118 20.3353 14.9078 19.801 15.0847 19.2308H0Z" fill="#FFD24C"/>
</svg>
