<svg width="27" height="35" viewBox="0 0 27 35" fill="none" xmlns="http://www.w3.org/2000/svg">
<path fill-rule="evenodd" clip-rule="evenodd" d="M9.96905 30.7617H9.86936H1.73744C1.27754 30.7591 0.837308 30.5748 0.51267 30.249C0.349824 30.0894 0.220568 29.8988 0.132517 29.6884C0.0444656 29.4781 -0.000599885 29.2523 -2.50876e-05 29.0242V1.73745C-0.000599885 1.50942 0.0444656 1.28359 0.132517 1.07324C0.220568 0.862898 0.349824 0.672302 0.51267 0.512682C0.672291 0.349835 0.862886 0.220579 1.07323 0.132528C1.28357 0.044477 1.50941 -0.000588441 1.73744 -1.36435e-05H22.9488C23.4077 0.00337133 23.8468 0.187596 24.1707 0.512682C24.3341 0.672063 24.4639 0.862552 24.5524 1.07291C24.6409 1.28326 24.6865 1.50922 24.6863 1.73745V18.1608L23.4501 16.6911C23.3803 16.6047 23.3021 16.5255 23.2165 16.4547V12.0312H1.49249V29.0784C1.49228 29.1104 1.49875 29.1422 1.5115 29.1716C1.52425 29.201 1.543 29.2275 1.56654 29.2493C1.58812 29.2729 1.61459 29.2915 1.64411 29.3038C1.67363 29.3161 1.70549 29.3218 1.73744 29.3205L9.34527 29.2977C9.32888 29.7349 9.47615 30.1624 9.75828 30.4968L9.96905 30.7617ZM26.7484 26.0905L15.8451 35L11.1084 29.3632L11.7549 28.6568L15.2327 32.7555L15.2754 32.8096C15.3544 32.9017 15.4506 32.9773 15.5587 33.0321C15.6669 33.0869 15.7847 33.1199 15.9056 33.1292C16.0265 33.1384 16.148 33.1238 16.2633 33.0861C16.3785 33.0483 16.4851 32.9883 16.5771 32.9093L16.9332 32.6017L18.6165 31.132L26.0221 25.2303L26.737 26.0848L26.7484 26.0905ZM26.8111 23.4416L15.8992 32.3568L11.1682 26.7171L22.0801 17.8048L26.8196 23.4387L26.8111 23.4416ZM20.4565 24.8201C20.53 25.1436 20.5057 25.4816 20.3868 25.7912C20.268 26.1009 20.0598 26.3683 19.7888 26.5595C19.5178 26.7507 19.1961 26.8572 18.8645 26.8653C18.5329 26.8735 18.2063 26.783 17.9262 26.6053C17.6461 26.4276 17.4251 26.1708 17.2911 25.8674C17.1572 25.5639 17.1164 25.2275 17.1738 24.9009C17.2313 24.5742 17.3845 24.2719 17.6139 24.0324C17.8434 23.7929 18.1388 23.6269 18.4627 23.5555C18.8947 23.4602 19.3468 23.5398 19.7204 23.7767C20.0939 24.0137 20.3586 24.3888 20.4565 24.8201ZM24.2846 24.1081L17.0072 29.9613C16.82 29.742 16.5538 29.6053 16.2665 29.5807C15.9791 29.5562 15.6937 29.6459 15.472 29.8303L13.5978 27.6029C13.7069 27.5111 13.7968 27.3987 13.8624 27.2722C13.928 27.1456 13.968 27.0073 13.9802 26.8653C13.9924 26.7233 13.9764 26.5802 13.9333 26.4443C13.8902 26.3085 13.8207 26.1824 13.7288 26.0734L21.0091 20.223C21.1954 20.4428 21.4612 20.5799 21.7483 20.6045C22.0354 20.629 22.3205 20.539 22.5415 20.354L24.4185 22.5814C24.1975 22.7674 24.0592 23.0335 24.0341 23.3213C24.009 23.6091 24.0991 23.8951 24.2846 24.1166V24.1081ZM20.1119 14.4694V15.5261C20.1127 15.5369 20.1112 15.5478 20.1075 15.558C20.1038 15.5682 20.098 15.5775 20.0905 15.5853C20.083 15.5931 20.0739 15.5992 20.0638 15.6032C20.0538 15.6073 20.043 15.6091 20.0321 15.6087H13.9567C13.9458 15.6091 13.935 15.6073 13.925 15.6032C13.9149 15.5992 13.9058 15.5931 13.8983 15.5853C13.8908 15.5775 13.885 15.5682 13.8813 15.558C13.8776 15.5478 13.8761 15.5369 13.8769 15.5261V14.4694C13.8761 14.4586 13.8776 14.4477 13.8813 14.4375C13.885 14.4273 13.8908 14.418 13.8983 14.4102C13.9058 14.4024 13.9149 14.3963 13.925 14.3923C13.935 14.3882 13.9458 14.3864 13.9567 14.3868H20.0321C20.043 14.3864 20.0538 14.3882 20.0638 14.3923C20.0739 14.3963 20.083 14.4024 20.0905 14.4102C20.098 14.418 20.1038 14.4273 20.1075 14.4375C20.1112 14.4477 20.1127 14.4586 20.1119 14.4694ZM17.8332 17.1724V18.2292C17.8337 18.24 17.8318 18.2508 17.8278 18.2609C17.8237 18.2709 17.8176 18.28 17.8098 18.2875C17.802 18.2951 17.7927 18.3009 17.7825 18.3046C17.7723 18.3082 17.7614 18.3097 17.7506 18.3089H13.9709C13.9601 18.3097 13.9492 18.3082 13.9391 18.3046C13.9289 18.3009 13.9195 18.2951 13.9117 18.2875C13.9039 18.28 13.8978 18.2709 13.8938 18.2609C13.8898 18.2508 13.8879 18.24 13.8883 18.2292V17.1724C13.8879 17.1616 13.8898 17.1508 13.8938 17.1407C13.8978 17.1307 13.9039 17.1216 13.9117 17.114C13.9195 17.1065 13.9289 17.1007 13.9391 17.097C13.9492 17.0933 13.9601 17.0919 13.9709 17.0927H17.7592C17.7802 17.0939 17.8001 17.1027 17.8152 17.1173C17.8304 17.1319 17.8398 17.1515 17.8418 17.1724H17.8332ZM7.99517 4.07022H9.55605C9.56936 4.06938 9.58269 4.07139 9.59516 4.0761C9.60764 4.08082 9.61896 4.08813 9.62839 4.09756C9.63782 4.10699 9.64513 4.11832 9.64985 4.13079C9.65456 4.14327 9.65657 4.1566 9.65574 4.16991V9.62157C9.65616 9.63464 9.65384 9.64766 9.64895 9.65979C9.64405 9.67192 9.63667 9.6829 9.62729 9.69201C9.6179 9.70113 9.60672 9.70818 9.59445 9.71273C9.58219 9.71728 9.5691 9.71921 9.55605 9.71841H8.00372C7.99078 9.71925 7.97782 9.71732 7.96569 9.71275C7.95356 9.70818 7.94255 9.70107 7.93338 9.69191C7.92422 9.68274 7.91711 9.67172 7.91254 9.6596C7.90797 9.64747 7.90604 9.6345 7.90688 9.62157V4.16991C7.90561 4.15675 7.90722 4.14347 7.91159 4.13099C7.91597 4.11851 7.92301 4.10713 7.93222 4.09765C7.94144 4.08816 7.95261 4.0808 7.96495 4.07606C7.9773 4.07132 7.99053 4.06933 8.00372 4.07022H7.99517ZM11.5527 6.14378H13.1136C13.1267 6.14252 13.14 6.14412 13.1525 6.1485C13.165 6.15288 13.1764 6.15992 13.1858 6.16913C13.1953 6.17835 13.2027 6.18951 13.2074 6.20186C13.2122 6.21421 13.2142 6.22743 13.2133 6.24063V9.60163C13.2137 9.61471 13.2114 9.62772 13.2065 9.63985C13.2016 9.65198 13.1942 9.66296 13.1848 9.67207C13.1754 9.68119 13.1643 9.68825 13.152 9.69279C13.1397 9.69734 13.1266 9.69927 13.1136 9.69847H11.5613C11.5484 9.69887 11.5357 9.69663 11.5237 9.69191C11.5118 9.68718 11.501 9.68006 11.4919 9.67099C11.4828 9.66191 11.4757 9.65108 11.471 9.63915C11.4663 9.62722 11.464 9.61445 11.4644 9.60163V6.24063C11.4658 6.21539 11.4764 6.19154 11.4943 6.17367C11.5122 6.15579 11.536 6.14515 11.5613 6.14378H11.5527ZM18.6735 6.14378H20.2344C20.2473 6.14295 20.2602 6.14488 20.2724 6.14945C20.2845 6.15402 20.2955 6.16113 20.3047 6.17029C20.3139 6.17946 20.321 6.19047 20.3255 6.2026C20.3301 6.21473 20.332 6.22769 20.3312 6.24063V9.60163C20.3316 9.61445 20.3294 9.62722 20.3246 9.63915C20.3199 9.65108 20.3128 9.66191 20.3037 9.67099C20.2946 9.68006 20.2838 9.68718 20.2719 9.69191C20.2599 9.69663 20.2472 9.69887 20.2344 9.69847H18.682C18.669 9.69927 18.6559 9.69734 18.6436 9.69279C18.6313 9.68825 18.6202 9.68119 18.6108 9.67207C18.6014 9.66296 18.594 9.65198 18.5891 9.63985C18.5842 9.62772 18.5819 9.61471 18.5823 9.60163V6.24063C18.5844 6.21514 18.5956 6.19126 18.614 6.17344C18.6323 6.15563 18.6565 6.14509 18.682 6.14378H18.6735ZM15.1131 4.07022H16.674C16.6873 4.06938 16.7006 4.07139 16.7131 4.0761C16.7256 4.08082 16.7369 4.08813 16.7463 4.09756C16.7557 4.10699 16.7631 4.11832 16.7678 4.13079C16.7725 4.14327 16.7745 4.1566 16.7737 4.16991V9.62157C16.7741 9.63464 16.7718 9.64766 16.7669 9.65979C16.762 9.67192 16.7546 9.6829 16.7452 9.69201C16.7358 9.70113 16.7246 9.70818 16.7124 9.71273C16.7001 9.71728 16.687 9.71921 16.674 9.71841H15.1216C15.1086 9.71921 15.0955 9.71728 15.0832 9.71273C15.071 9.70818 15.0598 9.70113 15.0504 9.69201C15.041 9.6829 15.0336 9.67192 15.0287 9.65979C15.0238 9.64766 15.0215 9.63464 15.0219 9.62157V4.16991C15.0211 4.1566 15.0231 4.14327 15.0278 4.13079C15.0326 4.11832 15.0399 4.10699 15.0493 4.09756C15.0587 4.08813 15.0701 4.08082 15.0825 4.0761C15.095 4.07139 15.1083 4.06938 15.1216 4.07022H15.1131ZM4.44903 4.81932H6.00706C6.02036 4.81849 6.0337 4.82049 6.04617 4.82521C6.05864 4.82992 6.06997 4.83724 6.0794 4.84667C6.08883 4.8561 6.09614 4.86742 6.10086 4.8799C6.10557 4.89237 6.10758 4.9057 6.10675 4.91901V9.62157C6.10717 9.63464 6.10485 9.64766 6.09996 9.65979C6.09506 9.67192 6.08768 9.6829 6.07829 9.69201C6.06891 9.70113 6.05773 9.70818 6.04546 9.71273C6.03319 9.71728 6.02011 9.71921 6.00706 9.71841H4.44903C4.43597 9.71921 4.42289 9.71728 4.41063 9.71273C4.39836 9.70818 4.38718 9.70113 4.37779 9.69201C4.36841 9.6829 4.36103 9.67192 4.35613 9.65979C4.35123 9.64766 4.34892 9.63464 4.34934 9.62157V4.91901C4.3294 4.8592 4.38922 4.81932 4.44903 4.81932ZM8.06069 18.8729L11.3733 18.9327C11.3745 19.5128 11.2331 20.0844 10.9614 20.597C10.6897 21.1096 10.2961 21.5475 9.81524 21.8721L8.06069 18.8729ZM7.87839 17.8589L7.83852 14.0023V13.7488L8.09486 13.7687C8.40409 13.7903 8.71039 13.8428 9.00917 13.9254C9.29892 14.0064 9.57954 14.1171 9.84657 14.2558C10.5272 14.6152 11.1026 15.1456 11.5161 15.7949C11.9296 16.4441 12.167 17.1898 12.205 17.9586L12.2249 18.2121H11.9629L8.12335 18.0953H7.91827L7.87839 17.8617V17.8589ZM8.34836 17.6253L11.7179 17.7222C11.6462 17.0787 11.4189 16.4623 11.0557 15.9263C10.6924 15.3904 10.2041 14.9509 9.63295 14.646C9.27854 14.467 8.90079 14.3385 8.51072 14.2643C8.44236 14.2643 8.37685 14.2415 8.30849 14.2358L8.34836 17.6253ZM6.94985 18.5282L8.82973 21.8009C8.25396 22.1311 7.60219 22.3059 6.93845 22.3079C5.95682 22.2961 5.01826 21.903 4.3211 21.2118C3.62394 20.5207 3.22281 19.5855 3.20247 18.604C3.18213 17.6225 3.54418 16.6716 4.2121 15.9521C4.88002 15.2327 5.8015 14.8011 6.7818 14.7485L6.93845 18.5282H6.94985ZM23.2165 10.7808V1.73745C23.2178 1.7055 23.2121 1.67364 23.1998 1.64412C23.1875 1.6146 23.1689 1.58813 23.1453 1.56656C23.1235 1.54301 23.0971 1.52427 23.0677 1.51152C23.0383 1.49876 23.0065 1.49229 22.9744 1.4925H1.73744C1.70529 1.49174 1.67336 1.49797 1.64386 1.51075C1.61435 1.52354 1.58797 1.54258 1.56654 1.56656C1.54042 1.58615 1.51985 1.61222 1.50686 1.64219C1.49388 1.67216 1.48892 1.70499 1.49249 1.73745V10.7808H23.2165Z" fill="#474646"/>
</svg>
